<svg xmlns="http://www.w3.org/2000/svg" width="1100" height="620" viewBox="0 0 1100 620">
<rect x="0" y="0" width="100%" height="100%" fill="white"/>
<text x="90" y="38" font-family="Arial, sans-serif" font-size="26" font-weight="700" fill="#1f2937">Real Historical Realised Path</text>
<text x="90" y="62" font-family="Arial, sans-serif" font-size="14" fill="#6b7280">Blue = charge, red = discharge, purple = price</text>
<rect x="90" y="80" width="940" height="210" fill="none" stroke="#d1d5db" stroke-width="1"/>
<rect x="90" y="380" width="940" height="165" fill="none" stroke="#d1d5db" stroke-width="1"/>
<line x1="90" y1="280.45" x2="1030" y2="280.45" stroke="#e5e7eb" stroke-width="1"/>
<text x="80" y="285.45" text-anchor="end" font-family="Arial, sans-serif" font-size="12" fill="#4b5563">-500</text>
<line x1="90" y1="232.73" x2="1030" y2="232.73" stroke="#e5e7eb" stroke-width="1"/>
<text x="80" y="237.73" text-anchor="end" font-family="Arial, sans-serif" font-size="12" fill="#4b5563">-250</text>
<line x1="90" y1="185.00" x2="1030" y2="185.00" stroke="#e5e7eb" stroke-width="1"/>
<text x="80" y="190.00" text-anchor="end" font-family="Arial, sans-serif" font-size="12" fill="#4b5563">0</text>
<line x1="90" y1="137.27" x2="1030" y2="137.27" stroke="#e5e7eb" stroke-width="1"/>
<text x="80" y="142.27" text-anchor="end" font-family="Arial, sans-serif" font-size="12" fill="#4b5563">250</text>
<line x1="90" y1="89.55" x2="1030" y2="89.55" stroke="#e5e7eb" stroke-width="1"/>
<text x="80" y="94.55" text-anchor="end" font-family="Arial, sans-serif" font-size="12" fill="#4b5563">500</text>
<line x1="90" y1="545.00" x2="1030" y2="545.00" stroke="#e5e7eb" stroke-width="1"/>
<text x="80" y="550.00" text-anchor="end" font-family="Arial, sans-serif" font-size="12" fill="#4b5563">0</text>
<line x1="90" y1="503.75" x2="1030" y2="503.75" stroke="#e5e7eb" stroke-width="1"/>
<text x="80" y="508.75" text-anchor="end" font-family="Arial, sans-serif" font-size="12" fill="#4b5563">500</text>
<line x1="90" y1="462.50" x2="1030" y2="462.50" stroke="#e5e7eb" stroke-width="1"/>
<text x="80" y="467.50" text-anchor="end" font-family="Arial, sans-serif" font-size="12" fill="#4b5563">1000</text>
<line x1="90" y1="421.25" x2="1030" y2="421.25" stroke="#e5e7eb" stroke-width="1"/>
<text x="80" y="426.25" text-anchor="end" font-family="Arial, sans-serif" font-size="12" fill="#4b5563">1500</text>
<line x1="90" y1="380.00" x2="1030" y2="380.00" stroke="#e5e7eb" stroke-width="1"/>
<text x="80" y="385.00" text-anchor="end" font-family="Arial, sans-serif" font-size="12" fill="#4b5563">2000</text>
<line x1="108.00" y1="80" x2="108.00" y2="290" stroke="#f3f4f6" stroke-width="1"/>
<line x1="108.00" y1="380" x2="108.00" y2="545" stroke="#f3f4f6" stroke-width="1"/>
<text x="108.00" y="310" text-anchor="middle" font-family="Arial, sans-serif" font-size="9" fill="#4b5563">D1</text>
<text x="108.00" y="565" text-anchor="middle" font-family="Arial, sans-serif" font-size="9" fill="#4b5563">D1</text>
<line x1="138.18" y1="80" x2="138.18" y2="290" stroke="#f3f4f6" stroke-width="1"/>
<line x1="138.18" y1="380" x2="138.18" y2="545" stroke="#f3f4f6" stroke-width="1"/>
<text x="138.18" y="310" text-anchor="middle" font-family="Arial, sans-serif" font-size="9" fill="#4b5563">D2</text>
<text x="138.18" y="565" text-anchor="middle" font-family="Arial, sans-serif" font-size="9" fill="#4b5563">D2</text>
<line x1="168.35" y1="80" x2="168.35" y2="290" stroke="#f3f4f6" stroke-width="1"/>
<line x1="168.35" y1="380" x2="168.35" y2="545" stroke="#f3f4f6" stroke-width="1"/>
<text x="168.35" y="310" text-anchor="middle" font-family="Arial, sans-serif" font-size="9" fill="#4b5563">D3</text>
<text x="168.35" y="565" text-anchor="middle" font-family="Arial, sans-serif" font-size="9" fill="#4b5563">D3</text>
<line x1="198.53" y1="80" x2="198.53" y2="290" stroke="#f3f4f6" stroke-width="1"/>
<line x1="198.53" y1="380" x2="198.53" y2="545" stroke="#f3f4f6" stroke-width="1"/>
<text x="198.53" y="310" text-anchor="middle" font-family="Arial, sans-serif" font-size="9" fill="#4b5563">D4</text>
<text x="198.53" y="565" text-anchor="middle" font-family="Arial, sans-serif" font-size="9" fill="#4b5563">D4</text>
<line x1="228.70" y1="80" x2="228.70" y2="290" stroke="#f3f4f6" stroke-width="1"/>
<line x1="228.70" y1="380" x2="228.70" y2="545" stroke="#f3f4f6" stroke-width="1"/>
<text x="228.70" y="310" text-anchor="middle" font-family="Arial, sans-serif" font-size="9" fill="#4b5563">D5</text>
<text x="228.70" y="565" text-anchor="middle" font-family="Arial, sans-serif" font-size="9" fill="#4b5563">D5</text>
<line x1="258.88" y1="80" x2="258.88" y2="290" stroke="#f3f4f6" stroke-width="1"/>
<line x1="258.88" y1="380" x2="258.88" y2="545" stroke="#f3f4f6" stroke-width="1"/>
<text x="258.88" y="310" text-anchor="middle" font-family="Arial, sans-serif" font-size="9" fill="#4b5563">D6</text>
<text x="258.88" y="565" text-anchor="middle" font-family="Arial, sans-serif" font-size="9" fill="#4b5563">D6</text>
<line x1="289.05" y1="80" x2="289.05" y2="290" stroke="#f3f4f6" stroke-width="1"/>
<line x1="289.05" y1="380" x2="289.05" y2="545" stroke="#f3f4f6" stroke-width="1"/>
<text x="289.05" y="310" text-anchor="middle" font-family="Arial, sans-serif" font-size="9" fill="#4b5563">D7</text>
<text x="289.05" y="565" text-anchor="middle" font-family="Arial, sans-serif" font-size="9" fill="#4b5563">D7</text>
<line x1="319.23" y1="80" x2="319.23" y2="290" stroke="#f3f4f6" stroke-width="1"/>
<line x1="319.23" y1="380" x2="319.23" y2="545" stroke="#f3f4f6" stroke-width="1"/>
<text x="319.23" y="310" text-anchor="middle" font-family="Arial, sans-serif" font-size="9" fill="#4b5563">D8</text>
<text x="319.23" y="565" text-anchor="middle" font-family="Arial, sans-serif" font-size="9" fill="#4b5563">D8</text>
<line x1="349.40" y1="80" x2="349.40" y2="290" stroke="#f3f4f6" stroke-width="1"/>
<line x1="349.40" y1="380" x2="349.40" y2="545" stroke="#f3f4f6" stroke-width="1"/>
<text x="349.40" y="310" text-anchor="middle" font-family="Arial, sans-serif" font-size="9" fill="#4b5563">D9</text>
<text x="349.40" y="565" text-anchor="middle" font-family="Arial, sans-serif" font-size="9" fill="#4b5563">D9</text>
<line x1="379.58" y1="80" x2="379.58" y2="290" stroke="#f3f4f6" stroke-width="1"/>
<line x1="379.58" y1="380" x2="379.58" y2="545" stroke="#f3f4f6" stroke-width="1"/>
<text x="379.58" y="310" text-anchor="middle" font-family="Arial, sans-serif" font-size="9" fill="#4b5563">D10</text>
<text x="379.58" y="565" text-anchor="middle" font-family="Arial, sans-serif" font-size="9" fill="#4b5563">D10</text>
<line x1="409.75" y1="80" x2="409.75" y2="290" stroke="#f3f4f6" stroke-width="1"/>
<line x1="409.75" y1="380" x2="409.75" y2="545" stroke="#f3f4f6" stroke-width="1"/>
<text x="409.75" y="310" text-anchor="middle" font-family="Arial, sans-serif" font-size="9" fill="#4b5563">D11</text>
<text x="409.75" y="565" text-anchor="middle" font-family="Arial, sans-serif" font-size="9" fill="#4b5563">D11</text>
<line x1="439.93" y1="80" x2="439.93" y2="290" stroke="#f3f4f6" stroke-width="1"/>
<line x1="439.93" y1="380" x2="439.93" y2="545" stroke="#f3f4f6" stroke-width="1"/>
<text x="439.93" y="310" text-anchor="middle" font-family="Arial, sans-serif" font-size="9" fill="#4b5563">D12</text>
<text x="439.93" y="565" text-anchor="middle" font-family="Arial, sans-serif" font-size="9" fill="#4b5563">D12</text>
<line x1="470.10" y1="80" x2="470.10" y2="290" stroke="#f3f4f6" stroke-width="1"/>
<line x1="470.10" y1="380" x2="470.10" y2="545" stroke="#f3f4f6" stroke-width="1"/>
<text x="470.10" y="310" text-anchor="middle" font-family="Arial, sans-serif" font-size="9" fill="#4b5563">D13</text>
<text x="470.10" y="565" text-anchor="middle" font-family="Arial, sans-serif" font-size="9" fill="#4b5563">D13</text>
<line x1="500.28" y1="80" x2="500.28" y2="290" stroke="#f3f4f6" stroke-width="1"/>
<line x1="500.28" y1="380" x2="500.28" y2="545" stroke="#f3f4f6" stroke-width="1"/>
<text x="500.28" y="310" text-anchor="middle" font-family="Arial, sans-serif" font-size="9" fill="#4b5563">D14</text>
<text x="500.28" y="565" text-anchor="middle" font-family="Arial, sans-serif" font-size="9" fill="#4b5563">D14</text>
<line x1="530.45" y1="80" x2="530.45" y2="290" stroke="#f3f4f6" stroke-width="1"/>
<line x1="530.45" y1="380" x2="530.45" y2="545" stroke="#f3f4f6" stroke-width="1"/>
<text x="530.45" y="310" text-anchor="middle" font-family="Arial, sans-serif" font-size="9" fill="#4b5563">D15</text>
<text x="530.45" y="565" text-anchor="middle" font-family="Arial, sans-serif" font-size="9" fill="#4b5563">D15</text>
<line x1="560.63" y1="80" x2="560.63" y2="290" stroke="#f3f4f6" stroke-width="1"/>
<line x1="560.63" y1="380" x2="560.63" y2="545" stroke="#f3f4f6" stroke-width="1"/>
<text x="560.63" y="310" text-anchor="middle" font-family="Arial, sans-serif" font-size="9" fill="#4b5563">D16</text>
<text x="560.63" y="565" text-anchor="middle" font-family="Arial, sans-serif" font-size="9" fill="#4b5563">D16</text>
<line x1="590.80" y1="80" x2="590.80" y2="290" stroke="#f3f4f6" stroke-width="1"/>
<line x1="590.80" y1="380" x2="590.80" y2="545" stroke="#f3f4f6" stroke-width="1"/>
<text x="590.80" y="310" text-anchor="middle" font-family="Arial, sans-serif" font-size="9" fill="#4b5563">D17</text>
<text x="590.80" y="565" text-anchor="middle" font-family="Arial, sans-serif" font-size="9" fill="#4b5563">D17</text>
<line x1="620.98" y1="80" x2="620.98" y2="290" stroke="#f3f4f6" stroke-width="1"/>
<line x1="620.98" y1="380" x2="620.98" y2="545" stroke="#f3f4f6" stroke-width="1"/>
<text x="620.98" y="310" text-anchor="middle" font-family="Arial, sans-serif" font-size="9" fill="#4b5563">D18</text>
<text x="620.98" y="565" text-anchor="middle" font-family="Arial, sans-serif" font-size="9" fill="#4b5563">D18</text>
<line x1="651.15" y1="80" x2="651.15" y2="290" stroke="#f3f4f6" stroke-width="1"/>
<line x1="651.15" y1="380" x2="651.15" y2="545" stroke="#f3f4f6" stroke-width="1"/>
<text x="651.15" y="310" text-anchor="middle" font-family="Arial, sans-serif" font-size="9" fill="#4b5563">D19</text>
<text x="651.15" y="565" text-anchor="middle" font-family="Arial, sans-serif" font-size="9" fill="#4b5563">D19</text>
<line x1="681.33" y1="80" x2="681.33" y2="290" stroke="#f3f4f6" stroke-width="1"/>
<line x1="681.33" y1="380" x2="681.33" y2="545" stroke="#f3f4f6" stroke-width="1"/>
<text x="681.33" y="310" text-anchor="middle" font-family="Arial, sans-serif" font-size="9" fill="#4b5563">D20</text>
<text x="681.33" y="565" text-anchor="middle" font-family="Arial, sans-serif" font-size="9" fill="#4b5563">D20</text>
<line x1="711.50" y1="80" x2="711.50" y2="290" stroke="#f3f4f6" stroke-width="1"/>
<line x1="711.50" y1="380" x2="711.50" y2="545" stroke="#f3f4f6" stroke-width="1"/>
<text x="711.50" y="310" text-anchor="middle" font-family="Arial, sans-serif" font-size="9" fill="#4b5563">D21</text>
<text x="711.50" y="565" text-anchor="middle" font-family="Arial, sans-serif" font-size="9" fill="#4b5563">D21</text>
<line x1="741.68" y1="80" x2="741.68" y2="290" stroke="#f3f4f6" stroke-width="1"/>
<line x1="741.68" y1="380" x2="741.68" y2="545" stroke="#f3f4f6" stroke-width="1"/>
<text x="741.68" y="310" text-anchor="middle" font-family="Arial, sans-serif" font-size="9" fill="#4b5563">D22</text>
<text x="741.68" y="565" text-anchor="middle" font-family="Arial, sans-serif" font-size="9" fill="#4b5563">D22</text>
<line x1="771.86" y1="80" x2="771.86" y2="290" stroke="#f3f4f6" stroke-width="1"/>
<line x1="771.86" y1="380" x2="771.86" y2="545" stroke="#f3f4f6" stroke-width="1"/>
<text x="771.86" y="310" text-anchor="middle" font-family="Arial, sans-serif" font-size="9" fill="#4b5563">D23</text>
<text x="771.86" y="565" text-anchor="middle" font-family="Arial, sans-serif" font-size="9" fill="#4b5563">D23</text>
<line x1="802.03" y1="80" x2="802.03" y2="290" stroke="#f3f4f6" stroke-width="1"/>
<line x1="802.03" y1="380" x2="802.03" y2="545" stroke="#f3f4f6" stroke-width="1"/>
<text x="802.03" y="310" text-anchor="middle" font-family="Arial, sans-serif" font-size="9" fill="#4b5563">D24</text>
<text x="802.03" y="565" text-anchor="middle" font-family="Arial, sans-serif" font-size="9" fill="#4b5563">D24</text>
<line x1="832.21" y1="80" x2="832.21" y2="290" stroke="#f3f4f6" stroke-width="1"/>
<line x1="832.21" y1="380" x2="832.21" y2="545" stroke="#f3f4f6" stroke-width="1"/>
<text x="832.21" y="310" text-anchor="middle" font-family="Arial, sans-serif" font-size="9" fill="#4b5563">D25</text>
<text x="832.21" y="565" text-anchor="middle" font-family="Arial, sans-serif" font-size="9" fill="#4b5563">D25</text>
<line x1="862.38" y1="80" x2="862.38" y2="290" stroke="#f3f4f6" stroke-width="1"/>
<line x1="862.38" y1="380" x2="862.38" y2="545" stroke="#f3f4f6" stroke-width="1"/>
<text x="862.38" y="310" text-anchor="middle" font-family="Arial, sans-serif" font-size="9" fill="#4b5563">D26</text>
<text x="862.38" y="565" text-anchor="middle" font-family="Arial, sans-serif" font-size="9" fill="#4b5563">D26</text>
<line x1="892.56" y1="80" x2="892.56" y2="290" stroke="#f3f4f6" stroke-width="1"/>
<line x1="892.56" y1="380" x2="892.56" y2="545" stroke="#f3f4f6" stroke-width="1"/>
<text x="892.56" y="310" text-anchor="middle" font-family="Arial, sans-serif" font-size="9" fill="#4b5563">D27</text>
<text x="892.56" y="565" text-anchor="middle" font-family="Arial, sans-serif" font-size="9" fill="#4b5563">D27</text>
<line x1="922.73" y1="80" x2="922.73" y2="290" stroke="#f3f4f6" stroke-width="1"/>
<line x1="922.73" y1="380" x2="922.73" y2="545" stroke="#f3f4f6" stroke-width="1"/>
<text x="922.73" y="310" text-anchor="middle" font-family="Arial, sans-serif" font-size="9" fill="#4b5563">D28</text>
<text x="922.73" y="565" text-anchor="middle" font-family="Arial, sans-serif" font-size="9" fill="#4b5563">D28</text>
<line x1="952.91" y1="80" x2="952.91" y2="290" stroke="#f3f4f6" stroke-width="1"/>
<line x1="952.91" y1="380" x2="952.91" y2="545" stroke="#f3f4f6" stroke-width="1"/>
<text x="952.91" y="310" text-anchor="middle" font-family="Arial, sans-serif" font-size="9" fill="#4b5563">D29</text>
<text x="952.91" y="565" text-anchor="middle" font-family="Arial, sans-serif" font-size="9" fill="#4b5563">D29</text>
<line x1="983.08" y1="80" x2="983.08" y2="290" stroke="#f3f4f6" stroke-width="1"/>
<line x1="983.08" y1="380" x2="983.08" y2="545" stroke="#f3f4f6" stroke-width="1"/>
<text x="983.08" y="310" text-anchor="middle" font-family="Arial, sans-serif" font-size="9" fill="#4b5563">D30</text>
<text x="983.08" y="565" text-anchor="middle" font-family="Arial, sans-serif" font-size="9" fill="#4b5563">D30</text>
<line x1="90" y1="185.00" x2="1030" y2="185.00" stroke="#9ca3af" stroke-width="1.2"/>
<rect x="107.18" y="185.00" width="1.63" height="85.91" fill="#e74c3c" opacity="0.85"/>
<rect x="108.44" y="185.00" width="1.63" height="28.64" fill="#e74c3c" opacity="0.85"/>
<rect x="109.70" y="99.09" width="1.63" height="85.91" fill="#3498db" opacity="0.85"/>
<rect x="110.96" y="99.09" width="1.63" height="85.91" fill="#3498db" opacity="0.85"/>
<rect x="112.21" y="156.36" width="1.63" height="28.64" fill="#3498db" opacity="0.85"/>
<rect x="113.47" y="185.00" width="1.63" height="28.64" fill="#e74c3c" opacity="0.85"/>
<rect x="114.73" y="185.00" width="1.63" height="85.91" fill="#e74c3c" opacity="0.85"/>
<rect x="115.99" y="185.00" width="1.63" height="85.91" fill="#e74c3c" opacity="0.85"/>
<rect x="118.50" y="99.09" width="1.63" height="85.91" fill="#3498db" opacity="0.85"/>
<rect x="119.76" y="185.00" width="1.63" height="28.64" fill="#e74c3c" opacity="0.85"/>
<rect x="121.01" y="99.09" width="1.63" height="85.91" fill="#3498db" opacity="0.85"/>
<rect x="122.27" y="89.55" width="1.63" height="95.45" fill="#3498db" opacity="0.85"/>
<rect x="123.53" y="99.09" width="1.63" height="85.91" fill="#3498db" opacity="0.85"/>
<rect x="128.56" y="185.00" width="1.63" height="85.91" fill="#e74c3c" opacity="0.85"/>
<rect x="129.82" y="185.00" width="1.63" height="85.91" fill="#e74c3c" opacity="0.85"/>
<rect x="131.07" y="185.00" width="1.63" height="85.91" fill="#e74c3c" opacity="0.85"/>
<rect x="132.33" y="185.00" width="1.63" height="85.91" fill="#e74c3c" opacity="0.85"/>
<rect x="133.59" y="185.00" width="1.63" height="28.64" fill="#e74c3c" opacity="0.85"/>
<rect x="134.84" y="156.36" width="1.63" height="28.64" fill="#3498db" opacity="0.85"/>
<rect x="137.36" y="185.00" width="1.63" height="28.64" fill="#e74c3c" opacity="0.85"/>
<rect x="143.65" y="156.36" width="1.63" height="28.64" fill="#3498db" opacity="0.85"/>
<rect x="144.90" y="185.00" width="1.63" height="28.64" fill="#e74c3c" opacity="0.85"/>
<rect x="147.42" y="156.36" width="1.63" height="28.64" fill="#3498db" opacity="0.85"/>
<rect x="148.67" y="185.00" width="1.63" height="28.64" fill="#e74c3c" opacity="0.85"/>
<rect x="149.93" y="156.36" width="1.63" height="28.64" fill="#3498db" opacity="0.85"/>
<rect x="151.19" y="99.09" width="1.63" height="85.91" fill="#3498db" opacity="0.85"/>
<rect x="152.45" y="89.55" width="1.63" height="95.45" fill="#3498db" opacity="0.85"/>
<rect x="153.70" y="89.55" width="1.63" height="95.45" fill="#3498db" opacity="0.85"/>
<rect x="154.96" y="99.09" width="1.63" height="85.91" fill="#3498db" opacity="0.85"/>
<rect x="157.48" y="185.00" width="1.63" height="28.64" fill="#e74c3c" opacity="0.85"/>
<rect x="158.73" y="185.00" width="1.63" height="85.91" fill="#e74c3c" opacity="0.85"/>
<rect x="159.99" y="185.00" width="1.63" height="85.91" fill="#e74c3c" opacity="0.85"/>
<rect x="161.25" y="185.00" width="1.63" height="85.91" fill="#e74c3c" opacity="0.85"/>
<rect x="162.51" y="185.00" width="1.63" height="85.91" fill="#e74c3c" opacity="0.85"/>
<rect x="166.28" y="99.09" width="1.63" height="85.91" fill="#3498db" opacity="0.85"/>
<rect x="167.53" y="99.09" width="1.63" height="85.91" fill="#3498db" opacity="0.85"/>
<rect x="168.79" y="89.55" width="1.63" height="95.45" fill="#3498db" opacity="0.85"/>
<rect x="170.05" y="89.55" width="1.63" height="95.45" fill="#3498db" opacity="0.85"/>
<rect x="171.31" y="156.36" width="1.63" height="28.64" fill="#3498db" opacity="0.85"/>
<rect x="172.56" y="185.00" width="1.63" height="85.91" fill="#e74c3c" opacity="0.85"/>
<rect x="173.82" y="185.00" width="1.63" height="85.91" fill="#e74c3c" opacity="0.85"/>
<rect x="175.08" y="185.00" width="1.63" height="85.91" fill="#e74c3c" opacity="0.85"/>
<rect x="176.34" y="185.00" width="1.63" height="85.91" fill="#e74c3c" opacity="0.85"/>
<rect x="177.59" y="185.00" width="1.63" height="28.64" fill="#e74c3c" opacity="0.85"/>
<rect x="178.85" y="175.45" width="1.63" height="9.55" fill="#3498db" opacity="0.85"/>
<rect x="180.11" y="156.36" width="1.63" height="28.64" fill="#3498db" opacity="0.85"/>
<rect x="181.36" y="99.09" width="1.63" height="85.91" fill="#3498db" opacity="0.85"/>
<rect x="182.62" y="99.09" width="1.63" height="85.91" fill="#3498db" opacity="0.85"/>
<rect x="183.88" y="99.09" width="1.63" height="85.91" fill="#3498db" opacity="0.85"/>
<rect x="185.14" y="99.09" width="1.63" height="85.91" fill="#3498db" opacity="0.85"/>
<rect x="187.65" y="185.00" width="1.63" height="19.09" fill="#e74c3c" opacity="0.85"/>
<rect x="188.91" y="185.00" width="1.63" height="85.91" fill="#e74c3c" opacity="0.85"/>
<rect x="190.17" y="185.00" width="1.63" height="85.91" fill="#e74c3c" opacity="0.85"/>
<rect x="191.42" y="185.00" width="1.63" height="85.91" fill="#e74c3c" opacity="0.85"/>
<rect x="192.68" y="185.00" width="1.63" height="85.91" fill="#e74c3c" opacity="0.85"/>
<rect x="195.20" y="175.45" width="1.63" height="9.55" fill="#3498db" opacity="0.85"/>
<rect x="196.45" y="99.09" width="1.63" height="85.91" fill="#3498db" opacity="0.85"/>
<rect x="197.71" y="99.09" width="1.63" height="85.91" fill="#3498db" opacity="0.85"/>
<rect x="198.97" y="99.09" width="1.63" height="85.91" fill="#3498db" opacity="0.85"/>
<rect x="200.22" y="99.09" width="1.63" height="85.91" fill="#3498db" opacity="0.85"/>
<rect x="201.48" y="156.36" width="1.63" height="28.64" fill="#3498db" opacity="0.85"/>
<rect x="202.74" y="185.00" width="1.63" height="28.64" fill="#e74c3c" opacity="0.85"/>
<rect x="204.00" y="185.00" width="1.63" height="95.45" fill="#e74c3c" opacity="0.85"/>
<rect x="205.25" y="185.00" width="1.63" height="95.45" fill="#e74c3c" opacity="0.85"/>
<rect x="206.51" y="185.00" width="1.63" height="85.91" fill="#e74c3c" opacity="0.85"/>
<rect x="207.77" y="185.00" width="1.63" height="28.64" fill="#e74c3c" opacity="0.85"/>
<rect x="209.03" y="185.00" width="1.63" height="28.64" fill="#e74c3c" opacity="0.85"/>
<rect x="210.28" y="165.91" width="1.63" height="19.09" fill="#3498db" opacity="0.85"/>
<rect x="211.54" y="99.09" width="1.63" height="85.91" fill="#3498db" opacity="0.85"/>
<rect x="212.80" y="99.09" width="1.63" height="85.91" fill="#3498db" opacity="0.85"/>
<rect x="214.05" y="99.09" width="1.63" height="85.91" fill="#3498db" opacity="0.85"/>
<rect x="215.31" y="99.09" width="1.63" height="85.91" fill="#3498db" opacity="0.85"/>
<rect x="216.57" y="185.00" width="1.63" height="85.91" fill="#e74c3c" opacity="0.85"/>
<rect x="217.83" y="185.00" width="1.63" height="85.91" fill="#e74c3c" opacity="0.85"/>
<rect x="219.08" y="185.00" width="1.63" height="85.91" fill="#e74c3c" opacity="0.85"/>
<rect x="220.34" y="185.00" width="1.63" height="95.45" fill="#e74c3c" opacity="0.85"/>
<rect x="225.37" y="156.36" width="1.63" height="28.64" fill="#3498db" opacity="0.85"/>
<rect x="226.63" y="99.09" width="1.63" height="85.91" fill="#3498db" opacity="0.85"/>
<rect x="227.89" y="99.09" width="1.63" height="85.91" fill="#3498db" opacity="0.85"/>
<rect x="229.14" y="89.55" width="1.63" height="95.45" fill="#3498db" opacity="0.85"/>
<rect x="230.40" y="99.09" width="1.63" height="85.91" fill="#3498db" opacity="0.85"/>
<rect x="231.66" y="175.45" width="1.63" height="9.55" fill="#3498db" opacity="0.85"/>
<rect x="234.17" y="185.00" width="1.63" height="85.91" fill="#e74c3c" opacity="0.85"/>
<rect x="235.43" y="185.00" width="1.63" height="85.91" fill="#e74c3c" opacity="0.85"/>
<rect x="236.69" y="185.00" width="1.63" height="85.91" fill="#e74c3c" opacity="0.85"/>
<rect x="237.94" y="185.00" width="1.63" height="85.91" fill="#e74c3c" opacity="0.85"/>
<rect x="239.20" y="185.00" width="1.63" height="19.09" fill="#e74c3c" opacity="0.85"/>
<rect x="240.46" y="99.09" width="1.63" height="85.91" fill="#3498db" opacity="0.85"/>
<rect x="241.72" y="99.09" width="1.63" height="85.91" fill="#3498db" opacity="0.85"/>
<rect x="242.97" y="99.09" width="1.63" height="85.91" fill="#3498db" opacity="0.85"/>
<rect x="244.23" y="99.09" width="1.63" height="85.91" fill="#3498db" opacity="0.85"/>
<rect x="245.49" y="156.36" width="1.63" height="28.64" fill="#3498db" opacity="0.85"/>
<rect x="246.74" y="185.00" width="1.63" height="9.55" fill="#e74c3c" opacity="0.85"/>
<rect x="248.00" y="185.00" width="1.63" height="85.91" fill="#e74c3c" opacity="0.85"/>
<rect x="249.26" y="185.00" width="1.63" height="95.45" fill="#e74c3c" opacity="0.85"/>
<rect x="250.52" y="185.00" width="1.63" height="85.91" fill="#e74c3c" opacity="0.85"/>
<rect x="251.77" y="185.00" width="1.63" height="85.91" fill="#e74c3c" opacity="0.85"/>
<rect x="255.55" y="175.45" width="1.63" height="9.55" fill="#3498db" opacity="0.85"/>
<rect x="256.80" y="99.09" width="1.63" height="85.91" fill="#3498db" opacity="0.85"/>
<rect x="258.06" y="99.09" width="1.63" height="85.91" fill="#3498db" opacity="0.85"/>
<rect x="259.32" y="99.09" width="1.63" height="85.91" fill="#3498db" opacity="0.85"/>
<rect x="260.57" y="99.09" width="1.63" height="85.91" fill="#3498db" opacity="0.85"/>
<rect x="261.83" y="156.36" width="1.63" height="28.64" fill="#3498db" opacity="0.85"/>
<rect x="264.35" y="185.00" width="1.63" height="95.45" fill="#e74c3c" opacity="0.85"/>
<rect x="265.60" y="185.00" width="1.63" height="95.45" fill="#e74c3c" opacity="0.85"/>
<rect x="266.86" y="185.00" width="1.63" height="85.91" fill="#e74c3c" opacity="0.85"/>
<rect x="268.12" y="185.00" width="1.63" height="28.64" fill="#e74c3c" opacity="0.85"/>
<rect x="269.38" y="185.00" width="1.63" height="28.64" fill="#e74c3c" opacity="0.85"/>
<rect x="270.63" y="99.09" width="1.63" height="85.91" fill="#3498db" opacity="0.85"/>
<rect x="271.89" y="99.09" width="1.63" height="85.91" fill="#3498db" opacity="0.85"/>
<rect x="273.15" y="99.09" width="1.63" height="85.91" fill="#3498db" opacity="0.85"/>
<rect x="274.41" y="99.09" width="1.63" height="85.91" fill="#3498db" opacity="0.85"/>
<rect x="275.66" y="175.45" width="1.63" height="9.55" fill="#3498db" opacity="0.85"/>
<rect x="279.43" y="185.00" width="1.63" height="85.91" fill="#e74c3c" opacity="0.85"/>
<rect x="280.69" y="185.00" width="1.63" height="95.45" fill="#e74c3c" opacity="0.85"/>
<rect x="281.95" y="185.00" width="1.63" height="95.45" fill="#e74c3c" opacity="0.85"/>
<rect x="283.21" y="185.00" width="1.63" height="85.91" fill="#e74c3c" opacity="0.85"/>
<rect x="286.98" y="156.36" width="1.63" height="28.64" fill="#3498db" opacity="0.85"/>
<rect x="288.24" y="99.09" width="1.63" height="85.91" fill="#3498db" opacity="0.85"/>
<rect x="289.49" y="99.09" width="1.63" height="85.91" fill="#3498db" opacity="0.85"/>
<rect x="290.75" y="89.55" width="1.63" height="95.45" fill="#3498db" opacity="0.85"/>
<rect x="292.01" y="99.09" width="1.63" height="85.91" fill="#3498db" opacity="0.85"/>
<rect x="293.26" y="185.00" width="1.63" height="95.45" fill="#e74c3c" opacity="0.85"/>
<rect x="294.52" y="185.00" width="1.63" height="95.45" fill="#e74c3c" opacity="0.85"/>
<rect x="295.78" y="185.00" width="1.63" height="95.45" fill="#e74c3c" opacity="0.85"/>
<rect x="297.04" y="185.00" width="1.63" height="76.36" fill="#e74c3c" opacity="0.85"/>
<rect x="300.81" y="156.36" width="1.63" height="28.64" fill="#3498db" opacity="0.85"/>
<rect x="302.07" y="99.09" width="1.63" height="85.91" fill="#3498db" opacity="0.85"/>
<rect x="303.32" y="99.09" width="1.63" height="85.91" fill="#3498db" opacity="0.85"/>
<rect x="304.58" y="99.09" width="1.63" height="85.91" fill="#3498db" opacity="0.85"/>
<rect x="305.84" y="99.09" width="1.63" height="85.91" fill="#3498db" opacity="0.85"/>
<rect x="307.10" y="185.00" width="1.63" height="9.55" fill="#e74c3c" opacity="0.85"/>
<rect x="308.35" y="185.00" width="1.63" height="95.45" fill="#e74c3c" opacity="0.85"/>
<rect x="309.61" y="185.00" width="1.63" height="95.45" fill="#e74c3c" opacity="0.85"/>
<rect x="310.87" y="185.00" width="1.63" height="95.45" fill="#e74c3c" opacity="0.85"/>
<rect x="312.12" y="185.00" width="1.63" height="57.27" fill="#e74c3c" opacity="0.85"/>
<rect x="318.41" y="89.55" width="1.63" height="95.45" fill="#3498db" opacity="0.85"/>
<rect x="319.67" y="185.00" width="1.63" height="85.91" fill="#e74c3c" opacity="0.85"/>
<rect x="323.44" y="175.45" width="1.63" height="9.55" fill="#3498db" opacity="0.85"/>
<rect x="324.70" y="89.55" width="1.63" height="95.45" fill="#3498db" opacity="0.85"/>
<rect x="325.95" y="185.00" width="1.63" height="95.45" fill="#e74c3c" opacity="0.85"/>
<rect x="327.21" y="146.82" width="1.63" height="38.18" fill="#3498db" opacity="0.85"/>
<rect x="328.47" y="185.00" width="1.63" height="38.18" fill="#e74c3c" opacity="0.85"/>
<rect x="329.73" y="89.55" width="1.63" height="95.45" fill="#3498db" opacity="0.85"/>
<rect x="330.98" y="185.00" width="1.63" height="85.91" fill="#e74c3c" opacity="0.85"/>
<rect x="332.24" y="89.55" width="1.63" height="95.45" fill="#3498db" opacity="0.85"/>
<rect x="333.50" y="89.55" width="1.63" height="95.45" fill="#3498db" opacity="0.85"/>
<rect x="334.76" y="89.55" width="1.63" height="95.45" fill="#3498db" opacity="0.85"/>
<rect x="336.01" y="89.55" width="1.63" height="95.45" fill="#3498db" opacity="0.85"/>
<rect x="337.27" y="175.45" width="1.63" height="9.55" fill="#3498db" opacity="0.85"/>
<rect x="341.04" y="185.00" width="1.63" height="85.91" fill="#e74c3c" opacity="0.85"/>
<rect x="342.30" y="185.00" width="1.63" height="85.91" fill="#e74c3c" opacity="0.85"/>
<rect x="343.56" y="185.00" width="1.63" height="85.91" fill="#e74c3c" opacity="0.85"/>
<rect x="344.81" y="185.00" width="1.63" height="19.09" fill="#e74c3c" opacity="0.85"/>
<rect x="346.07" y="185.00" width="1.63" height="95.45" fill="#e74c3c" opacity="0.85"/>
<rect x="348.59" y="99.09" width="1.63" height="85.91" fill="#3498db" opacity="0.85"/>
<rect x="349.84" y="89.55" width="1.63" height="95.45" fill="#3498db" opacity="0.85"/>
<rect x="351.10" y="99.09" width="1.63" height="85.91" fill="#3498db" opacity="0.85"/>
<rect x="352.36" y="99.09" width="1.63" height="85.91" fill="#3498db" opacity="0.85"/>
<rect x="353.62" y="185.00" width="1.63" height="95.45" fill="#e74c3c" opacity="0.85"/>
<rect x="354.87" y="185.00" width="1.63" height="28.64" fill="#e74c3c" opacity="0.85"/>
<rect x="356.13" y="185.00" width="1.63" height="95.45" fill="#e74c3c" opacity="0.85"/>
<rect x="357.39" y="99.09" width="1.63" height="85.91" fill="#3498db" opacity="0.85"/>
<rect x="358.64" y="89.55" width="1.63" height="95.45" fill="#3498db" opacity="0.85"/>
<rect x="359.90" y="99.09" width="1.63" height="85.91" fill="#3498db" opacity="0.85"/>
<rect x="361.16" y="185.00" width="1.63" height="85.91" fill="#e74c3c" opacity="0.85"/>
<rect x="362.42" y="99.09" width="1.63" height="85.91" fill="#3498db" opacity="0.85"/>
<rect x="363.67" y="175.45" width="1.63" height="9.55" fill="#3498db" opacity="0.85"/>
<rect x="368.70" y="185.00" width="1.63" height="85.91" fill="#e74c3c" opacity="0.85"/>
<rect x="369.96" y="185.00" width="1.63" height="85.91" fill="#e74c3c" opacity="0.85"/>
<rect x="371.22" y="185.00" width="1.63" height="85.91" fill="#e74c3c" opacity="0.85"/>
<rect x="372.47" y="185.00" width="1.63" height="85.91" fill="#e74c3c" opacity="0.85"/>
<rect x="373.73" y="185.00" width="1.63" height="28.64" fill="#e74c3c" opacity="0.85"/>
<rect x="378.76" y="156.36" width="1.63" height="28.64" fill="#3498db" opacity="0.85"/>
<rect x="380.02" y="99.09" width="1.63" height="85.91" fill="#3498db" opacity="0.85"/>
<rect x="381.28" y="99.09" width="1.63" height="85.91" fill="#3498db" opacity="0.85"/>
<rect x="382.53" y="99.09" width="1.63" height="85.91" fill="#3498db" opacity="0.85"/>
<rect x="383.79" y="99.09" width="1.63" height="85.91" fill="#3498db" opacity="0.85"/>
<rect x="385.05" y="185.00" width="1.63" height="28.64" fill="#e74c3c" opacity="0.85"/>
<rect x="386.31" y="185.00" width="1.63" height="85.91" fill="#e74c3c" opacity="0.85"/>
<rect x="387.56" y="185.00" width="1.63" height="85.91" fill="#e74c3c" opacity="0.85"/>
<rect x="388.82" y="185.00" width="1.63" height="85.91" fill="#e74c3c" opacity="0.85"/>
<rect x="390.08" y="185.00" width="1.63" height="28.64" fill="#e74c3c" opacity="0.85"/>
<rect x="392.59" y="99.09" width="1.63" height="85.91" fill="#3498db" opacity="0.85"/>
<rect x="393.85" y="99.09" width="1.63" height="85.91" fill="#3498db" opacity="0.85"/>
<rect x="395.11" y="99.09" width="1.63" height="85.91" fill="#3498db" opacity="0.85"/>
<rect x="396.36" y="99.09" width="1.63" height="85.91" fill="#3498db" opacity="0.85"/>
<rect x="398.88" y="185.00" width="1.63" height="19.09" fill="#e74c3c" opacity="0.85"/>
<rect x="400.14" y="185.00" width="1.63" height="85.91" fill="#e74c3c" opacity="0.85"/>
<rect x="401.39" y="185.00" width="1.63" height="85.91" fill="#e74c3c" opacity="0.85"/>
<rect x="402.65" y="185.00" width="1.63" height="85.91" fill="#e74c3c" opacity="0.85"/>
<rect x="403.91" y="185.00" width="1.63" height="95.45" fill="#e74c3c" opacity="0.85"/>
<rect x="406.42" y="175.45" width="1.63" height="9.55" fill="#3498db" opacity="0.85"/>
<rect x="407.68" y="156.36" width="1.63" height="28.64" fill="#3498db" opacity="0.85"/>
<rect x="408.94" y="99.09" width="1.63" height="85.91" fill="#3498db" opacity="0.85"/>
<rect x="410.19" y="99.09" width="1.63" height="85.91" fill="#3498db" opacity="0.85"/>
<rect x="411.45" y="89.55" width="1.63" height="95.45" fill="#3498db" opacity="0.85"/>
<rect x="412.71" y="99.09" width="1.63" height="85.91" fill="#3498db" opacity="0.85"/>
<rect x="416.48" y="185.00" width="1.63" height="85.91" fill="#e74c3c" opacity="0.85"/>
<rect x="417.74" y="185.00" width="1.63" height="28.64" fill="#e74c3c" opacity="0.85"/>
<rect x="418.99" y="185.00" width="1.63" height="85.91" fill="#e74c3c" opacity="0.85"/>
<rect x="420.25" y="185.00" width="1.63" height="85.91" fill="#e74c3c" opacity="0.85"/>
<rect x="421.51" y="156.36" width="1.63" height="28.64" fill="#3498db" opacity="0.85"/>
<rect x="422.77" y="99.09" width="1.63" height="85.91" fill="#3498db" opacity="0.85"/>
<rect x="424.02" y="99.09" width="1.63" height="85.91" fill="#3498db" opacity="0.85"/>
<rect x="425.28" y="99.09" width="1.63" height="85.91" fill="#3498db" opacity="0.85"/>
<rect x="426.54" y="175.45" width="1.63" height="9.55" fill="#3498db" opacity="0.85"/>
<rect x="427.80" y="185.00" width="1.63" height="85.91" fill="#e74c3c" opacity="0.85"/>
<rect x="429.05" y="185.00" width="1.63" height="85.91" fill="#e74c3c" opacity="0.85"/>
<rect x="430.31" y="185.00" width="1.63" height="95.45" fill="#e74c3c" opacity="0.85"/>
<rect x="431.57" y="185.00" width="1.63" height="85.91" fill="#e74c3c" opacity="0.85"/>
<rect x="432.83" y="185.00" width="1.63" height="9.55" fill="#e74c3c" opacity="0.85"/>
<rect x="436.60" y="175.45" width="1.63" height="9.55" fill="#3498db" opacity="0.85"/>
<rect x="437.85" y="156.36" width="1.63" height="28.64" fill="#3498db" opacity="0.85"/>
<rect x="439.11" y="99.09" width="1.63" height="85.91" fill="#3498db" opacity="0.85"/>
<rect x="440.37" y="99.09" width="1.63" height="85.91" fill="#3498db" opacity="0.85"/>
<rect x="441.63" y="99.09" width="1.63" height="85.91" fill="#3498db" opacity="0.85"/>
<rect x="442.88" y="99.09" width="1.63" height="85.91" fill="#3498db" opacity="0.85"/>
<rect x="445.40" y="185.00" width="1.63" height="85.91" fill="#e74c3c" opacity="0.85"/>
<rect x="446.66" y="185.00" width="1.63" height="85.91" fill="#e74c3c" opacity="0.85"/>
<rect x="447.91" y="185.00" width="1.63" height="85.91" fill="#e74c3c" opacity="0.85"/>
<rect x="449.17" y="185.00" width="1.63" height="85.91" fill="#e74c3c" opacity="0.85"/>
<rect x="450.43" y="185.00" width="1.63" height="28.64" fill="#e74c3c" opacity="0.85"/>
<rect x="452.94" y="156.36" width="1.63" height="28.64" fill="#3498db" opacity="0.85"/>
<rect x="454.20" y="99.09" width="1.63" height="85.91" fill="#3498db" opacity="0.85"/>
<rect x="455.46" y="89.55" width="1.63" height="95.45" fill="#3498db" opacity="0.85"/>
<rect x="456.71" y="89.55" width="1.63" height="95.45" fill="#3498db" opacity="0.85"/>
<rect x="457.97" y="99.09" width="1.63" height="85.91" fill="#3498db" opacity="0.85"/>
<rect x="459.23" y="185.00" width="1.63" height="85.91" fill="#e74c3c" opacity="0.85"/>
<rect x="460.49" y="185.00" width="1.63" height="85.91" fill="#e74c3c" opacity="0.85"/>
<rect x="461.74" y="185.00" width="1.63" height="85.91" fill="#e74c3c" opacity="0.85"/>
<rect x="463.00" y="185.00" width="1.63" height="85.91" fill="#e74c3c" opacity="0.85"/>
<rect x="464.26" y="185.00" width="1.63" height="28.64" fill="#e74c3c" opacity="0.85"/>
<rect x="466.77" y="156.36" width="1.63" height="28.64" fill="#3498db" opacity="0.85"/>
<rect x="468.03" y="99.09" width="1.63" height="85.91" fill="#3498db" opacity="0.85"/>
<rect x="469.29" y="99.09" width="1.63" height="85.91" fill="#3498db" opacity="0.85"/>
<rect x="470.54" y="99.09" width="1.63" height="85.91" fill="#3498db" opacity="0.85"/>
<rect x="471.80" y="99.09" width="1.63" height="85.91" fill="#3498db" opacity="0.85"/>
<rect x="473.06" y="175.45" width="1.63" height="9.55" fill="#3498db" opacity="0.85"/>
<rect x="474.32" y="185.00" width="1.63" height="85.91" fill="#e74c3c" opacity="0.85"/>
<rect x="475.57" y="185.00" width="1.63" height="95.45" fill="#e74c3c" opacity="0.85"/>
<rect x="476.83" y="185.00" width="1.63" height="95.45" fill="#e74c3c" opacity="0.85"/>
<rect x="478.09" y="185.00" width="1.63" height="85.91" fill="#e74c3c" opacity="0.85"/>
<rect x="480.60" y="156.36" width="1.63" height="28.64" fill="#3498db" opacity="0.85"/>
<rect x="481.86" y="99.09" width="1.63" height="85.91" fill="#3498db" opacity="0.85"/>
<rect x="483.12" y="99.09" width="1.63" height="85.91" fill="#3498db" opacity="0.85"/>
<rect x="484.37" y="99.09" width="1.63" height="85.91" fill="#3498db" opacity="0.85"/>
<rect x="485.63" y="99.09" width="1.63" height="85.91" fill="#3498db" opacity="0.85"/>
<rect x="486.89" y="175.45" width="1.63" height="9.55" fill="#3498db" opacity="0.85"/>
<rect x="489.40" y="185.00" width="1.63" height="76.36" fill="#e74c3c" opacity="0.85"/>
<rect x="490.66" y="185.00" width="1.63" height="95.45" fill="#e74c3c" opacity="0.85"/>
<rect x="491.92" y="185.00" width="1.63" height="95.45" fill="#e74c3c" opacity="0.85"/>
<rect x="493.18" y="185.00" width="1.63" height="95.45" fill="#e74c3c" opacity="0.85"/>
<rect x="498.20" y="118.18" width="1.63" height="66.82" fill="#3498db" opacity="0.85"/>
<rect x="499.46" y="99.09" width="1.63" height="85.91" fill="#3498db" opacity="0.85"/>
<rect x="500.72" y="99.09" width="1.63" height="85.91" fill="#3498db" opacity="0.85"/>
<rect x="501.98" y="99.09" width="1.63" height="85.91" fill="#3498db" opacity="0.85"/>
<rect x="503.23" y="118.18" width="1.63" height="66.82" fill="#3498db" opacity="0.85"/>
<rect x="505.75" y="185.00" width="1.63" height="95.45" fill="#e74c3c" opacity="0.85"/>
<rect x="507.01" y="185.00" width="1.63" height="95.45" fill="#e74c3c" opacity="0.85"/>
<rect x="508.26" y="185.00" width="1.63" height="85.91" fill="#e74c3c" opacity="0.85"/>
<rect x="509.52" y="185.00" width="1.63" height="85.91" fill="#e74c3c" opacity="0.85"/>
<rect x="512.04" y="99.09" width="1.63" height="85.91" fill="#3498db" opacity="0.85"/>
<rect x="513.29" y="89.55" width="1.63" height="95.45" fill="#3498db" opacity="0.85"/>
<rect x="514.55" y="99.09" width="1.63" height="85.91" fill="#3498db" opacity="0.85"/>
<rect x="515.81" y="99.09" width="1.63" height="85.91" fill="#3498db" opacity="0.85"/>
<rect x="517.06" y="156.36" width="1.63" height="28.64" fill="#3498db" opacity="0.85"/>
<rect x="519.58" y="185.00" width="1.63" height="95.45" fill="#e74c3c" opacity="0.85"/>
<rect x="520.84" y="185.00" width="1.63" height="95.45" fill="#e74c3c" opacity="0.85"/>
<rect x="522.09" y="185.00" width="1.63" height="95.45" fill="#e74c3c" opacity="0.85"/>
<rect x="523.35" y="185.00" width="1.63" height="76.36" fill="#e74c3c" opacity="0.85"/>
<rect x="529.64" y="165.91" width="1.63" height="19.09" fill="#3498db" opacity="0.85"/>
<rect x="530.89" y="99.09" width="1.63" height="85.91" fill="#3498db" opacity="0.85"/>
<rect x="532.15" y="99.09" width="1.63" height="85.91" fill="#3498db" opacity="0.85"/>
<rect x="533.41" y="99.09" width="1.63" height="85.91" fill="#3498db" opacity="0.85"/>
<rect x="534.67" y="99.09" width="1.63" height="85.91" fill="#3498db" opacity="0.85"/>
<rect x="535.92" y="185.00" width="1.63" height="85.91" fill="#e74c3c" opacity="0.85"/>
<rect x="537.18" y="185.00" width="1.63" height="85.91" fill="#e74c3c" opacity="0.85"/>
<rect x="538.44" y="185.00" width="1.63" height="85.91" fill="#e74c3c" opacity="0.85"/>
<rect x="539.70" y="185.00" width="1.63" height="85.91" fill="#e74c3c" opacity="0.85"/>
<rect x="540.95" y="175.45" width="1.63" height="9.55" fill="#3498db" opacity="0.85"/>
<rect x="542.21" y="156.36" width="1.63" height="28.64" fill="#3498db" opacity="0.85"/>
<rect x="543.47" y="99.09" width="1.63" height="85.91" fill="#3498db" opacity="0.85"/>
<rect x="544.73" y="99.09" width="1.63" height="85.91" fill="#3498db" opacity="0.85"/>
<rect x="545.98" y="99.09" width="1.63" height="85.91" fill="#3498db" opacity="0.85"/>
<rect x="547.24" y="99.09" width="1.63" height="85.91" fill="#3498db" opacity="0.85"/>
<rect x="549.75" y="185.00" width="1.63" height="28.64" fill="#e74c3c" opacity="0.85"/>
<rect x="551.01" y="185.00" width="1.63" height="85.91" fill="#e74c3c" opacity="0.85"/>
<rect x="552.27" y="185.00" width="1.63" height="85.91" fill="#e74c3c" opacity="0.85"/>
<rect x="553.53" y="185.00" width="1.63" height="85.91" fill="#e74c3c" opacity="0.85"/>
<rect x="554.78" y="185.00" width="1.63" height="85.91" fill="#e74c3c" opacity="0.85"/>
<rect x="559.81" y="156.36" width="1.63" height="28.64" fill="#3498db" opacity="0.85"/>
<rect x="561.07" y="99.09" width="1.63" height="85.91" fill="#3498db" opacity="0.85"/>
<rect x="562.33" y="99.09" width="1.63" height="85.91" fill="#3498db" opacity="0.85"/>
<rect x="563.58" y="99.09" width="1.63" height="85.91" fill="#3498db" opacity="0.85"/>
<rect x="564.84" y="99.09" width="1.63" height="85.91" fill="#3498db" opacity="0.85"/>
<rect x="567.36" y="185.00" width="1.63" height="85.91" fill="#e74c3c" opacity="0.85"/>
<rect x="568.61" y="185.00" width="1.63" height="85.91" fill="#e74c3c" opacity="0.85"/>
<rect x="569.87" y="185.00" width="1.63" height="28.64" fill="#e74c3c" opacity="0.85"/>
<rect x="571.13" y="185.00" width="1.63" height="85.91" fill="#e74c3c" opacity="0.85"/>
<rect x="572.39" y="185.00" width="1.63" height="28.64" fill="#e74c3c" opacity="0.85"/>
<rect x="573.64" y="99.09" width="1.63" height="85.91" fill="#3498db" opacity="0.85"/>
<rect x="574.90" y="99.09" width="1.63" height="85.91" fill="#3498db" opacity="0.85"/>
<rect x="576.16" y="99.09" width="1.63" height="85.91" fill="#3498db" opacity="0.85"/>
<rect x="577.41" y="99.09" width="1.63" height="85.91" fill="#3498db" opacity="0.85"/>
<rect x="581.19" y="185.00" width="1.63" height="85.91" fill="#e74c3c" opacity="0.85"/>
<rect x="582.44" y="185.00" width="1.63" height="85.91" fill="#e74c3c" opacity="0.85"/>
<rect x="583.70" y="185.00" width="1.63" height="95.45" fill="#e74c3c" opacity="0.85"/>
<rect x="584.96" y="185.00" width="1.63" height="95.45" fill="#e74c3c" opacity="0.85"/>
<rect x="587.47" y="175.45" width="1.63" height="9.55" fill="#3498db" opacity="0.85"/>
<rect x="588.73" y="99.09" width="1.63" height="85.91" fill="#3498db" opacity="0.85"/>
<rect x="589.99" y="99.09" width="1.63" height="85.91" fill="#3498db" opacity="0.85"/>
<rect x="591.25" y="99.09" width="1.63" height="85.91" fill="#3498db" opacity="0.85"/>
<rect x="592.50" y="99.09" width="1.63" height="85.91" fill="#3498db" opacity="0.85"/>
<rect x="593.76" y="156.36" width="1.63" height="28.64" fill="#3498db" opacity="0.85"/>
<rect x="595.02" y="185.00" width="1.63" height="85.91" fill="#e74c3c" opacity="0.85"/>
<rect x="596.27" y="185.00" width="1.63" height="95.45" fill="#e74c3c" opacity="0.85"/>
<rect x="597.53" y="185.00" width="1.63" height="95.45" fill="#e74c3c" opacity="0.85"/>
<rect x="598.79" y="185.00" width="1.63" height="85.91" fill="#e74c3c" opacity="0.85"/>
<rect x="600.05" y="99.09" width="1.63" height="85.91" fill="#3498db" opacity="0.85"/>
<rect x="601.30" y="99.09" width="1.63" height="85.91" fill="#3498db" opacity="0.85"/>
<rect x="602.56" y="99.09" width="1.63" height="85.91" fill="#3498db" opacity="0.85"/>
<rect x="603.82" y="156.36" width="1.63" height="28.64" fill="#3498db" opacity="0.85"/>
<rect x="605.08" y="99.09" width="1.63" height="85.91" fill="#3498db" opacity="0.85"/>
<rect x="606.33" y="175.45" width="1.63" height="9.55" fill="#3498db" opacity="0.85"/>
<rect x="610.10" y="185.00" width="1.63" height="85.91" fill="#e74c3c" opacity="0.85"/>
<rect x="611.36" y="185.00" width="1.63" height="95.45" fill="#e74c3c" opacity="0.85"/>
<rect x="612.62" y="185.00" width="1.63" height="95.45" fill="#e74c3c" opacity="0.85"/>
<rect x="613.88" y="185.00" width="1.63" height="85.91" fill="#e74c3c" opacity="0.85"/>
<rect x="617.65" y="175.45" width="1.63" height="9.55" fill="#3498db" opacity="0.85"/>
<rect x="618.91" y="156.36" width="1.63" height="28.64" fill="#3498db" opacity="0.85"/>
<rect x="620.16" y="99.09" width="1.63" height="85.91" fill="#3498db" opacity="0.85"/>
<rect x="621.42" y="99.09" width="1.63" height="85.91" fill="#3498db" opacity="0.85"/>
<rect x="622.68" y="99.09" width="1.63" height="85.91" fill="#3498db" opacity="0.85"/>
<rect x="623.94" y="99.09" width="1.63" height="85.91" fill="#3498db" opacity="0.85"/>
<rect x="625.19" y="185.00" width="1.63" height="85.91" fill="#e74c3c" opacity="0.85"/>
<rect x="626.45" y="185.00" width="1.63" height="95.45" fill="#e74c3c" opacity="0.85"/>
<rect x="627.71" y="185.00" width="1.63" height="95.45" fill="#e74c3c" opacity="0.85"/>
<rect x="628.96" y="185.00" width="1.63" height="85.91" fill="#e74c3c" opacity="0.85"/>
<rect x="630.22" y="175.45" width="1.63" height="9.55" fill="#3498db" opacity="0.85"/>
<rect x="631.48" y="156.36" width="1.63" height="28.64" fill="#3498db" opacity="0.85"/>
<rect x="632.74" y="99.09" width="1.63" height="85.91" fill="#3498db" opacity="0.85"/>
<rect x="633.99" y="99.09" width="1.63" height="85.91" fill="#3498db" opacity="0.85"/>
<rect x="635.25" y="99.09" width="1.63" height="85.91" fill="#3498db" opacity="0.85"/>
<rect x="636.51" y="99.09" width="1.63" height="85.91" fill="#3498db" opacity="0.85"/>
<rect x="640.28" y="185.00" width="1.63" height="85.91" fill="#e74c3c" opacity="0.85"/>
<rect x="641.54" y="185.00" width="1.63" height="95.45" fill="#e74c3c" opacity="0.85"/>
<rect x="642.79" y="185.00" width="1.63" height="95.45" fill="#e74c3c" opacity="0.85"/>
<rect x="644.05" y="185.00" width="1.63" height="85.91" fill="#e74c3c" opacity="0.85"/>
<rect x="647.82" y="175.45" width="1.63" height="9.55" fill="#3498db" opacity="0.85"/>
<rect x="649.08" y="99.09" width="1.63" height="85.91" fill="#3498db" opacity="0.85"/>
<rect x="650.34" y="99.09" width="1.63" height="85.91" fill="#3498db" opacity="0.85"/>
<rect x="651.60" y="99.09" width="1.63" height="85.91" fill="#3498db" opacity="0.85"/>
<rect x="652.85" y="156.36" width="1.63" height="28.64" fill="#3498db" opacity="0.85"/>
<rect x="654.11" y="99.09" width="1.63" height="85.91" fill="#3498db" opacity="0.85"/>
<rect x="655.37" y="185.00" width="1.63" height="28.64" fill="#e74c3c" opacity="0.85"/>
<rect x="656.62" y="185.00" width="1.63" height="95.45" fill="#e74c3c" opacity="0.85"/>
<rect x="657.88" y="185.00" width="1.63" height="95.45" fill="#e74c3c" opacity="0.85"/>
<rect x="659.14" y="185.00" width="1.63" height="95.45" fill="#e74c3c" opacity="0.85"/>
<rect x="660.40" y="185.00" width="1.63" height="28.64" fill="#e74c3c" opacity="0.85"/>
<rect x="661.65" y="185.00" width="1.63" height="9.55" fill="#e74c3c" opacity="0.85"/>
<rect x="662.91" y="156.36" width="1.63" height="28.64" fill="#3498db" opacity="0.85"/>
<rect x="664.17" y="99.09" width="1.63" height="85.91" fill="#3498db" opacity="0.85"/>
<rect x="665.43" y="99.09" width="1.63" height="85.91" fill="#3498db" opacity="0.85"/>
<rect x="666.68" y="99.09" width="1.63" height="85.91" fill="#3498db" opacity="0.85"/>
<rect x="667.94" y="99.09" width="1.63" height="85.91" fill="#3498db" opacity="0.85"/>
<rect x="669.20" y="185.00" width="1.63" height="28.64" fill="#e74c3c" opacity="0.85"/>
<rect x="670.46" y="185.00" width="1.63" height="85.91" fill="#e74c3c" opacity="0.85"/>
<rect x="671.71" y="185.00" width="1.63" height="85.91" fill="#e74c3c" opacity="0.85"/>
<rect x="672.97" y="185.00" width="1.63" height="85.91" fill="#e74c3c" opacity="0.85"/>
<rect x="674.23" y="185.00" width="1.63" height="85.91" fill="#e74c3c" opacity="0.85"/>
<rect x="678.00" y="175.45" width="1.63" height="9.55" fill="#3498db" opacity="0.85"/>
<rect x="679.26" y="156.36" width="1.63" height="28.64" fill="#3498db" opacity="0.85"/>
<rect x="680.51" y="99.09" width="1.63" height="85.91" fill="#3498db" opacity="0.85"/>
<rect x="681.77" y="99.09" width="1.63" height="85.91" fill="#3498db" opacity="0.85"/>
<rect x="683.03" y="99.09" width="1.63" height="85.91" fill="#3498db" opacity="0.85"/>
<rect x="684.29" y="99.09" width="1.63" height="85.91" fill="#3498db" opacity="0.85"/>
<rect x="686.80" y="185.00" width="1.63" height="28.64" fill="#e74c3c" opacity="0.85"/>
<rect x="688.06" y="185.00" width="1.63" height="85.91" fill="#e74c3c" opacity="0.85"/>
<rect x="689.31" y="185.00" width="1.63" height="85.91" fill="#e74c3c" opacity="0.85"/>
<rect x="690.57" y="185.00" width="1.63" height="9.55" fill="#e74c3c" opacity="0.85"/>
<rect x="691.83" y="185.00" width="1.63" height="85.91" fill="#e74c3c" opacity="0.85"/>
<rect x="693.09" y="185.00" width="1.63" height="28.64" fill="#e74c3c" opacity="0.85"/>
<rect x="694.34" y="99.09" width="1.63" height="85.91" fill="#3498db" opacity="0.85"/>
<rect x="695.60" y="99.09" width="1.63" height="85.91" fill="#3498db" opacity="0.85"/>
<rect x="696.86" y="99.09" width="1.63" height="85.91" fill="#3498db" opacity="0.85"/>
<rect x="698.12" y="99.09" width="1.63" height="85.91" fill="#3498db" opacity="0.85"/>
<rect x="701.89" y="185.00" width="1.63" height="85.91" fill="#e74c3c" opacity="0.85"/>
<rect x="703.15" y="185.00" width="1.63" height="95.45" fill="#e74c3c" opacity="0.85"/>
<rect x="704.40" y="185.00" width="1.63" height="95.45" fill="#e74c3c" opacity="0.85"/>
<rect x="705.66" y="185.00" width="1.63" height="85.91" fill="#e74c3c" opacity="0.85"/>
<rect x="708.17" y="175.45" width="1.63" height="9.55" fill="#3498db" opacity="0.85"/>
<rect x="709.43" y="99.09" width="1.63" height="85.91" fill="#3498db" opacity="0.85"/>
<rect x="710.69" y="99.09" width="1.63" height="85.91" fill="#3498db" opacity="0.85"/>
<rect x="711.95" y="99.09" width="1.63" height="85.91" fill="#3498db" opacity="0.85"/>
<rect x="713.20" y="99.09" width="1.63" height="85.91" fill="#3498db" opacity="0.85"/>
<rect x="714.46" y="156.36" width="1.63" height="28.64" fill="#3498db" opacity="0.85"/>
<rect x="716.98" y="185.00" width="1.63" height="85.91" fill="#e74c3c" opacity="0.85"/>
<rect x="718.23" y="185.00" width="1.63" height="85.91" fill="#e74c3c" opacity="0.85"/>
<rect x="719.49" y="185.00" width="1.63" height="85.91" fill="#e74c3c" opacity="0.85"/>
<rect x="720.75" y="185.00" width="1.63" height="85.91" fill="#e74c3c" opacity="0.85"/>
<rect x="722.00" y="185.00" width="1.63" height="28.64" fill="#e74c3c" opacity="0.85"/>
<rect x="723.26" y="175.45" width="1.63" height="9.55" fill="#3498db" opacity="0.85"/>
<rect x="724.52" y="99.09" width="1.63" height="85.91" fill="#3498db" opacity="0.85"/>
<rect x="725.78" y="99.09" width="1.63" height="85.91" fill="#3498db" opacity="0.85"/>
<rect x="727.03" y="99.09" width="1.63" height="85.91" fill="#3498db" opacity="0.85"/>
<rect x="728.29" y="99.09" width="1.63" height="85.91" fill="#3498db" opacity="0.85"/>
<rect x="729.55" y="156.36" width="1.63" height="28.64" fill="#3498db" opacity="0.85"/>
<rect x="730.81" y="185.00" width="1.63" height="9.55" fill="#e74c3c" opacity="0.85"/>
<rect x="732.06" y="185.00" width="1.63" height="85.91" fill="#e74c3c" opacity="0.85"/>
<rect x="733.32" y="185.00" width="1.63" height="85.91" fill="#e74c3c" opacity="0.85"/>
<rect x="734.58" y="185.00" width="1.63" height="95.45" fill="#e74c3c" opacity="0.85"/>
<rect x="735.83" y="185.00" width="1.63" height="85.91" fill="#e74c3c" opacity="0.85"/>
<rect x="740.86" y="156.36" width="1.63" height="28.64" fill="#3498db" opacity="0.85"/>
<rect x="742.12" y="156.36" width="1.63" height="28.64" fill="#3498db" opacity="0.85"/>
<rect x="743.38" y="99.09" width="1.63" height="85.91" fill="#3498db" opacity="0.85"/>
<rect x="744.64" y="99.09" width="1.63" height="85.91" fill="#3498db" opacity="0.85"/>
<rect x="745.89" y="156.36" width="1.63" height="28.64" fill="#3498db" opacity="0.85"/>
<rect x="747.15" y="185.00" width="1.63" height="85.91" fill="#e74c3c" opacity="0.85"/>
<rect x="748.41" y="185.00" width="1.63" height="85.91" fill="#e74c3c" opacity="0.85"/>
<rect x="749.67" y="185.00" width="1.63" height="28.64" fill="#e74c3c" opacity="0.85"/>
<rect x="750.92" y="185.00" width="1.63" height="9.55" fill="#e74c3c" opacity="0.85"/>
<rect x="752.18" y="156.36" width="1.63" height="28.64" fill="#3498db" opacity="0.85"/>
<rect x="753.44" y="156.36" width="1.63" height="28.64" fill="#3498db" opacity="0.85"/>
<rect x="754.69" y="99.09" width="1.63" height="85.91" fill="#3498db" opacity="0.85"/>
<rect x="755.95" y="99.09" width="1.63" height="85.91" fill="#3498db" opacity="0.85"/>
<rect x="757.21" y="99.09" width="1.63" height="85.91" fill="#3498db" opacity="0.85"/>
<rect x="758.47" y="156.36" width="1.63" height="28.64" fill="#3498db" opacity="0.85"/>
<rect x="759.72" y="185.00" width="1.63" height="28.64" fill="#e74c3c" opacity="0.85"/>
<rect x="760.98" y="185.00" width="1.63" height="85.91" fill="#e74c3c" opacity="0.85"/>
<rect x="762.24" y="185.00" width="1.63" height="85.91" fill="#e74c3c" opacity="0.85"/>
<rect x="763.50" y="185.00" width="1.63" height="85.91" fill="#e74c3c" opacity="0.85"/>
<rect x="766.01" y="185.00" width="1.63" height="85.91" fill="#e74c3c" opacity="0.85"/>
<rect x="773.55" y="156.36" width="1.63" height="28.64" fill="#3498db" opacity="0.85"/>
<rect x="774.81" y="156.36" width="1.63" height="28.64" fill="#3498db" opacity="0.85"/>
<rect x="776.07" y="89.55" width="1.63" height="95.45" fill="#3498db" opacity="0.85"/>
<rect x="777.33" y="156.36" width="1.63" height="28.64" fill="#3498db" opacity="0.85"/>
<rect x="778.58" y="185.00" width="1.63" height="85.91" fill="#e74c3c" opacity="0.85"/>
<rect x="779.84" y="185.00" width="1.63" height="85.91" fill="#e74c3c" opacity="0.85"/>
<rect x="783.61" y="175.45" width="1.63" height="9.55" fill="#3498db" opacity="0.85"/>
<rect x="784.87" y="89.55" width="1.63" height="95.45" fill="#3498db" opacity="0.85"/>
<rect x="786.13" y="89.55" width="1.63" height="95.45" fill="#3498db" opacity="0.85"/>
<rect x="787.38" y="89.55" width="1.63" height="95.45" fill="#3498db" opacity="0.85"/>
<rect x="788.64" y="89.55" width="1.63" height="95.45" fill="#3498db" opacity="0.85"/>
<rect x="792.41" y="185.00" width="1.63" height="95.45" fill="#e74c3c" opacity="0.85"/>
<rect x="793.67" y="185.00" width="1.63" height="95.45" fill="#e74c3c" opacity="0.85"/>
<rect x="794.93" y="185.00" width="1.63" height="85.91" fill="#e74c3c" opacity="0.85"/>
<rect x="796.19" y="185.00" width="1.63" height="85.91" fill="#e74c3c" opacity="0.85"/>
<rect x="798.70" y="175.45" width="1.63" height="9.55" fill="#3498db" opacity="0.85"/>
<rect x="799.96" y="99.09" width="1.63" height="85.91" fill="#3498db" opacity="0.85"/>
<rect x="801.21" y="99.09" width="1.63" height="85.91" fill="#3498db" opacity="0.85"/>
<rect x="802.47" y="99.09" width="1.63" height="85.91" fill="#3498db" opacity="0.85"/>
<rect x="803.73" y="99.09" width="1.63" height="85.91" fill="#3498db" opacity="0.85"/>
<rect x="804.99" y="156.36" width="1.63" height="28.64" fill="#3498db" opacity="0.85"/>
<rect x="806.24" y="185.00" width="1.63" height="85.91" fill="#e74c3c" opacity="0.85"/>
<rect x="807.50" y="185.00" width="1.63" height="95.45" fill="#e74c3c" opacity="0.85"/>
<rect x="808.76" y="185.00" width="1.63" height="95.45" fill="#e74c3c" opacity="0.85"/>
<rect x="810.02" y="185.00" width="1.63" height="85.91" fill="#e74c3c" opacity="0.85"/>
<rect x="811.27" y="156.36" width="1.63" height="28.64" fill="#3498db" opacity="0.85"/>
<rect x="812.53" y="185.00" width="1.63" height="19.09" fill="#e74c3c" opacity="0.85"/>
<rect x="813.79" y="99.09" width="1.63" height="85.91" fill="#3498db" opacity="0.85"/>
<rect x="815.04" y="99.09" width="1.63" height="85.91" fill="#3498db" opacity="0.85"/>
<rect x="816.30" y="99.09" width="1.63" height="85.91" fill="#3498db" opacity="0.85"/>
<rect x="817.56" y="99.09" width="1.63" height="85.91" fill="#3498db" opacity="0.85"/>
<rect x="818.82" y="156.36" width="1.63" height="28.64" fill="#3498db" opacity="0.85"/>
<rect x="821.33" y="185.00" width="1.63" height="85.91" fill="#e74c3c" opacity="0.85"/>
<rect x="822.59" y="185.00" width="1.63" height="95.45" fill="#e74c3c" opacity="0.85"/>
<rect x="823.85" y="185.00" width="1.63" height="95.45" fill="#e74c3c" opacity="0.85"/>
<rect x="825.10" y="185.00" width="1.63" height="85.91" fill="#e74c3c" opacity="0.85"/>
<rect x="828.88" y="175.45" width="1.63" height="9.55" fill="#3498db" opacity="0.85"/>
<rect x="830.13" y="99.09" width="1.63" height="85.91" fill="#3498db" opacity="0.85"/>
<rect x="831.39" y="99.09" width="1.63" height="85.91" fill="#3498db" opacity="0.85"/>
<rect x="832.65" y="99.09" width="1.63" height="85.91" fill="#3498db" opacity="0.85"/>
<rect x="833.90" y="99.09" width="1.63" height="85.91" fill="#3498db" opacity="0.85"/>
<rect x="835.16" y="156.36" width="1.63" height="28.64" fill="#3498db" opacity="0.85"/>
<rect x="837.68" y="185.00" width="1.63" height="95.45" fill="#e74c3c" opacity="0.85"/>
<rect x="838.93" y="185.00" width="1.63" height="95.45" fill="#e74c3c" opacity="0.85"/>
<rect x="840.19" y="185.00" width="1.63" height="85.91" fill="#e74c3c" opacity="0.85"/>
<rect x="841.45" y="185.00" width="1.63" height="85.91" fill="#e74c3c" opacity="0.85"/>
<rect x="842.71" y="156.36" width="1.63" height="28.64" fill="#3498db" opacity="0.85"/>
<rect x="843.96" y="99.09" width="1.63" height="85.91" fill="#3498db" opacity="0.85"/>
<rect x="845.22" y="99.09" width="1.63" height="85.91" fill="#3498db" opacity="0.85"/>
<rect x="846.48" y="99.09" width="1.63" height="85.91" fill="#3498db" opacity="0.85"/>
<rect x="847.73" y="99.09" width="1.63" height="85.91" fill="#3498db" opacity="0.85"/>
<rect x="848.99" y="175.45" width="1.63" height="9.55" fill="#3498db" opacity="0.85"/>
<rect x="851.51" y="185.00" width="1.63" height="85.91" fill="#e74c3c" opacity="0.85"/>
<rect x="852.76" y="185.00" width="1.63" height="95.45" fill="#e74c3c" opacity="0.85"/>
<rect x="854.02" y="185.00" width="1.63" height="95.45" fill="#e74c3c" opacity="0.85"/>
<rect x="855.28" y="185.00" width="1.63" height="85.91" fill="#e74c3c" opacity="0.85"/>
<rect x="859.05" y="175.45" width="1.63" height="9.55" fill="#3498db" opacity="0.85"/>
<rect x="860.31" y="156.36" width="1.63" height="28.64" fill="#3498db" opacity="0.85"/>
<rect x="861.57" y="99.09" width="1.63" height="85.91" fill="#3498db" opacity="0.85"/>
<rect x="862.82" y="99.09" width="1.63" height="85.91" fill="#3498db" opacity="0.85"/>
<rect x="864.08" y="99.09" width="1.63" height="85.91" fill="#3498db" opacity="0.85"/>
<rect x="865.34" y="99.09" width="1.63" height="85.91" fill="#3498db" opacity="0.85"/>
<rect x="866.59" y="185.00" width="1.63" height="85.91" fill="#e74c3c" opacity="0.85"/>
<rect x="867.85" y="185.00" width="1.63" height="95.45" fill="#e74c3c" opacity="0.85"/>
<rect x="869.11" y="185.00" width="1.63" height="95.45" fill="#e74c3c" opacity="0.85"/>
<rect x="870.37" y="185.00" width="1.63" height="85.91" fill="#e74c3c" opacity="0.85"/>
<rect x="874.14" y="175.45" width="1.63" height="9.55" fill="#3498db" opacity="0.85"/>
<rect x="875.40" y="99.09" width="1.63" height="85.91" fill="#3498db" opacity="0.85"/>
<rect x="876.65" y="99.09" width="1.63" height="85.91" fill="#3498db" opacity="0.85"/>
<rect x="877.91" y="99.09" width="1.63" height="85.91" fill="#3498db" opacity="0.85"/>
<rect x="879.17" y="99.09" width="1.63" height="85.91" fill="#3498db" opacity="0.85"/>
<rect x="880.42" y="156.36" width="1.63" height="28.64" fill="#3498db" opacity="0.85"/>
<rect x="881.68" y="185.00" width="1.63" height="85.91" fill="#e74c3c" opacity="0.85"/>
<rect x="882.94" y="185.00" width="1.63" height="95.45" fill="#e74c3c" opacity="0.85"/>
<rect x="884.20" y="185.00" width="1.63" height="95.45" fill="#e74c3c" opacity="0.85"/>
<rect x="885.45" y="185.00" width="1.63" height="85.91" fill="#e74c3c" opacity="0.85"/>
<rect x="889.23" y="156.36" width="1.63" height="28.64" fill="#3498db" opacity="0.85"/>
<rect x="890.48" y="99.09" width="1.63" height="85.91" fill="#3498db" opacity="0.85"/>
<rect x="891.74" y="99.09" width="1.63" height="85.91" fill="#3498db" opacity="0.85"/>
<rect x="893.00" y="99.09" width="1.63" height="85.91" fill="#3498db" opacity="0.85"/>
<rect x="894.25" y="99.09" width="1.63" height="85.91" fill="#3498db" opacity="0.85"/>
<rect x="895.51" y="175.45" width="1.63" height="9.55" fill="#3498db" opacity="0.85"/>
<rect x="896.77" y="185.00" width="1.63" height="85.91" fill="#e74c3c" opacity="0.85"/>
<rect x="898.03" y="185.00" width="1.63" height="95.45" fill="#e74c3c" opacity="0.85"/>
<rect x="899.28" y="185.00" width="1.63" height="95.45" fill="#e74c3c" opacity="0.85"/>
<rect x="900.54" y="185.00" width="1.63" height="85.91" fill="#e74c3c" opacity="0.85"/>
<rect x="903.06" y="175.45" width="1.63" height="9.55" fill="#3498db" opacity="0.85"/>
<rect x="904.31" y="156.36" width="1.63" height="28.64" fill="#3498db" opacity="0.85"/>
<rect x="905.57" y="99.09" width="1.63" height="85.91" fill="#3498db" opacity="0.85"/>
<rect x="906.83" y="99.09" width="1.63" height="85.91" fill="#3498db" opacity="0.85"/>
<rect x="908.09" y="99.09" width="1.63" height="85.91" fill="#3498db" opacity="0.85"/>
<rect x="909.34" y="99.09" width="1.63" height="85.91" fill="#3498db" opacity="0.85"/>
<rect x="911.86" y="185.00" width="1.63" height="85.91" fill="#e74c3c" opacity="0.85"/>
<rect x="913.11" y="185.00" width="1.63" height="95.45" fill="#e74c3c" opacity="0.85"/>
<rect x="914.37" y="185.00" width="1.63" height="95.45" fill="#e74c3c" opacity="0.85"/>
<rect x="915.63" y="185.00" width="1.63" height="85.91" fill="#e74c3c" opacity="0.85"/>
<rect x="919.40" y="99.09" width="1.63" height="85.91" fill="#3498db" opacity="0.85"/>
<rect x="920.66" y="99.09" width="1.63" height="85.91" fill="#3498db" opacity="0.85"/>
<rect x="921.92" y="156.36" width="1.63" height="28.64" fill="#3498db" opacity="0.85"/>
<rect x="923.17" y="175.45" width="1.63" height="9.55" fill="#3498db" opacity="0.85"/>
<rect x="924.43" y="99.09" width="1.63" height="85.91" fill="#3498db" opacity="0.85"/>
<rect x="925.69" y="99.09" width="1.63" height="85.91" fill="#3498db" opacity="0.85"/>
<rect x="926.94" y="185.00" width="1.63" height="85.91" fill="#e74c3c" opacity="0.85"/>
<rect x="928.20" y="185.00" width="1.63" height="95.45" fill="#e74c3c" opacity="0.85"/>
<rect x="929.46" y="185.00" width="1.63" height="95.45" fill="#e74c3c" opacity="0.85"/>
<rect x="930.72" y="185.00" width="1.63" height="85.91" fill="#e74c3c" opacity="0.85"/>
<rect x="934.49" y="156.36" width="1.63" height="28.64" fill="#3498db" opacity="0.85"/>
<rect x="935.75" y="99.09" width="1.63" height="85.91" fill="#3498db" opacity="0.85"/>
<rect x="937.00" y="99.09" width="1.63" height="85.91" fill="#3498db" opacity="0.85"/>
<rect x="938.26" y="99.09" width="1.63" height="85.91" fill="#3498db" opacity="0.85"/>
<rect x="939.52" y="99.09" width="1.63" height="85.91" fill="#3498db" opacity="0.85"/>
<rect x="940.78" y="175.45" width="1.63" height="9.55" fill="#3498db" opacity="0.85"/>
<rect x="942.03" y="185.00" width="1.63" height="85.91" fill="#e74c3c" opacity="0.85"/>
<rect x="943.29" y="185.00" width="1.63" height="95.45" fill="#e74c3c" opacity="0.85"/>
<rect x="944.55" y="185.00" width="1.63" height="95.45" fill="#e74c3c" opacity="0.85"/>
<rect x="945.80" y="185.00" width="1.63" height="85.91" fill="#e74c3c" opacity="0.85"/>
<rect x="952.09" y="156.36" width="1.63" height="28.64" fill="#3498db" opacity="0.85"/>
<rect x="953.35" y="156.36" width="1.63" height="28.64" fill="#3498db" opacity="0.85"/>
<rect x="954.61" y="156.36" width="1.63" height="28.64" fill="#3498db" opacity="0.85"/>
<rect x="955.86" y="99.09" width="1.63" height="85.91" fill="#3498db" opacity="0.85"/>
<rect x="957.12" y="185.00" width="1.63" height="28.64" fill="#e74c3c" opacity="0.85"/>
<rect x="958.38" y="185.00" width="1.63" height="85.91" fill="#e74c3c" opacity="0.85"/>
<rect x="959.63" y="185.00" width="1.63" height="28.64" fill="#e74c3c" opacity="0.85"/>
<rect x="960.89" y="185.00" width="1.63" height="28.64" fill="#e74c3c" opacity="0.85"/>
<rect x="963.41" y="175.45" width="1.63" height="9.55" fill="#3498db" opacity="0.85"/>
<rect x="964.66" y="156.36" width="1.63" height="28.64" fill="#3498db" opacity="0.85"/>
<rect x="965.92" y="99.09" width="1.63" height="85.91" fill="#3498db" opacity="0.85"/>
<rect x="967.18" y="99.09" width="1.63" height="85.91" fill="#3498db" opacity="0.85"/>
<rect x="968.44" y="99.09" width="1.63" height="85.91" fill="#3498db" opacity="0.85"/>
<rect x="969.69" y="99.09" width="1.63" height="85.91" fill="#3498db" opacity="0.85"/>
<rect x="972.21" y="185.00" width="1.63" height="19.09" fill="#e74c3c" opacity="0.85"/>
<rect x="973.46" y="185.00" width="1.63" height="95.45" fill="#e74c3c" opacity="0.85"/>
<rect x="974.72" y="185.00" width="1.63" height="95.45" fill="#e74c3c" opacity="0.85"/>
<rect x="975.98" y="185.00" width="1.63" height="95.45" fill="#e74c3c" opacity="0.85"/>
<rect x="977.24" y="185.00" width="1.63" height="57.27" fill="#e74c3c" opacity="0.85"/>
<rect x="986.04" y="89.55" width="1.63" height="95.45" fill="#3498db" opacity="0.85"/>
<rect x="987.30" y="89.55" width="1.63" height="95.45" fill="#3498db" opacity="0.85"/>
<rect x="988.55" y="165.91" width="1.63" height="19.09" fill="#3498db" opacity="0.85"/>
<rect x="989.81" y="185.00" width="1.63" height="95.45" fill="#e74c3c" opacity="0.85"/>
<rect x="991.07" y="185.00" width="1.63" height="95.45" fill="#e74c3c" opacity="0.85"/>
<rect x="994.84" y="165.91" width="1.63" height="19.09" fill="#3498db" opacity="0.85"/>
<rect x="996.10" y="89.55" width="1.63" height="95.45" fill="#3498db" opacity="0.85"/>
<rect x="997.35" y="89.55" width="1.63" height="95.45" fill="#3498db" opacity="0.85"/>
<rect x="998.61" y="89.55" width="1.63" height="95.45" fill="#3498db" opacity="0.85"/>
<rect x="999.87" y="99.09" width="1.63" height="85.91" fill="#3498db" opacity="0.85"/>
<rect x="1004.90" y="185.00" width="1.63" height="95.45" fill="#e74c3c" opacity="0.85"/>
<rect x="1006.15" y="185.00" width="1.63" height="85.91" fill="#e74c3c" opacity="0.85"/>
<rect x="1007.41" y="185.00" width="1.63" height="95.45" fill="#e74c3c" opacity="0.85"/>
<rect x="1008.67" y="185.00" width="1.63" height="85.91" fill="#e74c3c" opacity="0.85"/>
<rect x="1009.93" y="89.55" width="1.63" height="95.45" fill="#3498db" opacity="0.85"/>
<rect x="1011.18" y="89.55" width="1.63" height="95.45" fill="#3498db" opacity="0.85"/>
<polyline fill="none" stroke="#8e44ad" stroke-width="2.4" points="108.00,146.96 109.26,147.63 110.51,149.90 111.77,152.50 113.03,149.61 114.29,147.70 115.54,145.46 116.80,146.47 118.06,148.93 119.32,150.17 120.57,148.64 121.83,153.30 123.09,157.73 124.34,150.79 125.60,147.68 126.86,146.03 128.12,137.48 129.37,134.00 130.63,132.21 131.89,133.14 133.15,133.78 134.40,136.78 135.66,146.63 136.92,146.13 138.18,146.01 139.43,147.18 140.69,147.44 141.95,150.26 143.20,150.70 144.46,152.31 145.72,150.24 146.98,156.59 148.23,164.87 149.49,164.72 150.75,167.97 152.01,173.85 153.26,187.46 154.52,178.18 155.78,173.85 157.03,152.12 158.29,143.69 159.55,136.98 160.81,136.20 162.06,137.28 163.32,137.30 164.58,145.20 165.84,148.77 167.09,152.28 168.35,155.06 169.61,155.94 170.87,156.30 172.12,151.52 173.38,133.49 174.64,128.82 175.89,128.71 177.15,132.20 178.41,134.86 179.67,136.66 180.92,138.24 182.18,139.10 183.44,139.35 184.70,138.86 185.95,138.85 187.21,130.94 188.47,128.27 189.72,122.75 190.98,124.40 192.24,125.09 193.50,127.69 194.75,132.64 196.01,139.89 197.27,141.79 198.53,143.02 199.78,143.72 201.04,141.96 202.30,140.79 203.55,130.96 204.81,122.98 206.07,117.39 207.33,126.63 208.58,131.73 209.84,133.08 211.10,136.82 212.36,137.97 213.61,139.40 214.87,140.18 216.13,137.81 217.39,130.99 218.64,128.59 219.90,127.46 221.16,129.03 222.41,136.04 223.67,140.87 224.93,147.20 226.19,147.78 227.44,149.32 228.70,150.96 229.96,150.98 231.22,150.14 232.47,147.49 233.73,136.86 234.99,129.26 236.24,128.74 237.50,129.85 238.76,132.67 240.02,133.67 241.27,135.42 242.53,138.17 243.79,138.31 245.05,136.33 246.30,135.25 247.56,130.42 248.82,125.16 250.08,116.21 251.33,123.94 252.59,130.17 253.85,134.18 255.10,142.77 256.36,146.67 257.62,148.84 258.88,150.87 260.13,151.53 261.39,151.50 262.65,147.71 263.91,142.69 265.16,133.37 266.42,131.00 267.68,134.24 268.93,140.57 270.19,141.10 271.45,142.53 272.71,142.86 273.96,142.86 275.22,142.29 276.48,141.15 277.74,138.78 278.99,130.93 280.25,121.08 281.51,113.41 282.76,117.53 284.02,125.76 285.28,132.57 286.54,133.72 287.79,140.53 289.05,142.36 290.31,141.63 291.57,142.77 292.82,142.33 294.08,115.32 295.34,97.47 296.60,104.83 297.85,127.72 299.11,137.20 300.37,141.35 301.62,144.94 302.88,147.54 304.14,148.22 305.40,148.07 306.65,146.50 307.91,143.66 309.17,134.25 310.43,131.95 311.68,134.09 312.94,141.78 314.20,145.00 315.45,149.12 316.71,177.71 317.97,199.35 319.23,221.10 320.48,221.14 321.74,226.50 323.00,237.21 324.26,242.84 325.51,242.89 326.77,242.97 328.03,248.39 329.29,251.87 330.54,257.07 331.80,260.18 333.06,270.10 334.31,275.52 335.57,270.11 336.83,258.59 338.09,248.37 339.34,242.82 340.60,166.20 341.86,152.06 343.12,149.96 344.37,147.96 345.63,155.00 346.89,149.80 348.14,162.17 349.40,164.61 350.66,167.70 351.92,165.72 353.17,166.00 354.43,161.55 355.69,163.11 356.95,160.77 358.20,166.27 359.46,171.92 360.72,164.33 361.97,161.39 363.23,162.89 364.49,161.42 365.75,158.15 367.00,150.82 368.26,142.97 369.52,129.40 370.78,124.63 372.03,122.72 373.29,126.39 374.55,132.95 375.81,138.95 377.06,141.43 378.32,146.30 379.58,147.45 380.83,148.30 382.09,148.29 383.35,149.57 384.61,148.47 385.86,145.01 387.12,141.19 388.38,144.04 389.64,144.97 390.89,145.53 392.15,146.46 393.41,148.16 394.66,147.97 395.92,147.81 397.18,147.13 398.44,143.75 399.69,137.99 400.95,134.17 402.21,133.26 403.47,134.28 404.72,134.17 405.98,139.54 407.24,144.94 408.50,145.90 409.75,146.91 411.01,148.25 412.27,149.47 413.52,145.98 414.78,130.59 416.04,126.14 417.30,120.20 418.55,123.26 419.81,120.33 421.07,118.92 422.33,126.14 423.58,127.95 424.84,128.63 426.10,127.12 427.35,123.51 428.61,116.78 429.87,113.10 431.13,112.50 432.38,118.95 433.64,121.94 434.90,127.53 436.16,133.16 437.41,136.68 438.67,138.90 439.93,141.31 441.18,141.30 442.44,141.92 443.70,139.56 444.96,125.66 446.21,116.22 447.47,109.58 448.73,115.15 449.99,121.22 451.24,122.71 452.50,127.66 453.76,131.00 455.02,135.20 456.27,140.59 457.53,139.23 458.79,131.84 460.04,124.93 461.30,121.73 462.56,122.69 463.82,125.79 465.07,129.12 466.33,135.58 467.59,145.28 468.85,146.84 470.10,147.89 471.36,146.84 472.62,146.87 473.87,145.16 475.13,136.94 476.39,125.46 477.65,129.28 478.90,138.06 480.16,141.89 481.42,144.84 482.68,146.76 483.93,146.50 485.19,146.29 486.45,145.01 487.71,143.83 488.96,141.04 490.22,123.20 491.48,107.81 492.73,94.48 493.99,109.58 495.25,125.95 496.51,133.05 497.76,141.30 499.02,145.28 500.28,146.95 501.54,146.81 502.79,146.25 504.05,145.17 505.31,133.89 506.56,120.10 507.82,112.85 509.08,124.34 510.34,131.00 511.59,133.07 512.85,139.71 514.11,141.76 515.37,141.47 516.62,140.62 517.88,138.15 519.14,124.36 520.39,114.29 521.65,107.32 522.91,113.57 524.17,122.81 525.42,130.32 526.68,136.41 527.94,141.46 529.20,143.44 530.45,145.13 531.71,147.28 532.97,148.74 534.23,149.76 535.48,148.65 536.74,145.05 538.00,141.78 539.25,142.57 540.51,144.90 541.77,147.79 543.03,150.06 544.28,150.55 545.54,152.06 546.80,151.95 548.06,150.56 549.31,146.16 550.57,138.81 551.83,133.95 553.08,134.56 554.34,135.20 555.60,135.16 556.86,140.35 558.11,144.85 559.37,147.74 560.63,149.33 561.89,150.05 563.14,150.40 564.40,151.69 565.66,151.68 566.92,148.38 568.17,146.83 569.43,147.17 570.69,147.82 571.94,147.24 573.20,148.12 574.46,151.65 575.72,152.54 576.97,150.86 578.23,149.63 579.49,144.27 580.75,136.12 582.00,128.90 583.26,125.52 584.52,121.55 585.77,125.41 587.03,133.18 588.29,141.71 589.55,144.73 590.80,145.08 592.06,145.60 593.32,145.59 594.58,144.01 595.83,127.87 597.09,122.42 598.35,124.36 599.61,135.05 600.86,139.99 602.12,141.02 603.38,140.70 604.63,139.43 605.89,139.86 607.15,139.06 608.41,134.69 609.66,128.76 610.92,115.62 612.18,101.44 613.44,102.07 614.69,114.34 615.95,128.15 617.21,135.15 618.46,141.81 619.72,141.94 620.98,144.39 622.24,144.98 623.49,144.00 624.75,143.85 626.01,132.80 627.27,121.40 628.52,123.57 629.78,130.10 631.04,134.25 632.29,135.36 633.55,137.30 634.81,138.41 636.07,138.45 637.32,135.94 638.58,130.99 639.84,125.75 641.10,121.16 642.35,105.72 643.61,104.68 644.87,119.82 646.13,126.49 647.38,137.34 648.64,140.56 649.90,141.49 651.15,141.76 652.41,141.53 653.67,141.10 654.93,141.47 656.18,130.83 657.44,118.48 658.70,113.90 659.96,124.08 661.21,130.93 662.47,133.29 663.73,137.42 664.98,137.50 666.24,138.20 667.50,138.42 668.76,139.70 670.01,131.00 671.27,123.36 672.53,119.85 673.79,122.13 675.04,128.03 676.30,134.08 677.56,139.61 678.82,144.17 680.07,144.79 681.33,145.18 682.59,146.44 683.84,146.63 685.10,146.01 686.36,144.03 687.62,138.42 688.87,134.51 690.13,137.53 691.39,138.85 692.65,137.45 693.90,138.43 695.16,140.59 696.42,141.59 697.67,140.77 698.93,141.19 700.19,137.74 701.45,134.58 702.70,128.93 703.96,121.16 705.22,123.29 706.48,126.96 707.73,134.95 708.99,140.36 710.25,142.68 711.50,142.95 712.76,141.78 714.02,141.32 715.28,140.67 716.53,133.38 717.79,127.19 719.05,126.46 720.31,129.37 721.56,129.89 722.82,133.04 724.08,138.29 725.34,141.20 726.59,142.42 727.85,142.58 729.11,142.63 730.36,139.62 731.62,133.31 732.88,129.23 734.14,125.64 735.39,123.39 736.65,129.37 737.91,137.48 739.17,138.97 740.42,142.96 741.68,145.05 742.94,145.13 744.19,145.80 745.45,146.06 746.71,145.14 747.97,142.24 749.22,139.77 750.48,142.89 751.74,143.89 753.00,145.06 754.25,145.07 755.51,146.62 756.77,146.72 758.03,146.46 759.28,145.08 760.54,141.61 761.80,139.90 763.05,136.44 764.31,139.19 765.57,142.18 766.83,140.66 768.08,145.50 769.34,147.10 770.60,148.56 771.86,149.37 773.11,150.12 774.37,153.94 775.63,153.94 776.88,154.62 778.14,153.86 779.40,150.26 780.66,150.53 781.91,156.97 783.17,159.22 784.43,166.85 785.69,174.85 786.94,182.30 788.20,183.46 789.46,177.61 790.71,150.37 791.97,146.40 793.23,138.94 794.49,138.13 795.74,142.98 797.00,140.48 798.26,147.01 799.52,148.33 800.77,149.74 802.03,151.56 803.29,150.91 804.55,153.50 805.80,149.42 807.06,139.34 808.32,125.52 809.57,131.14 810.83,138.25 812.09,142.14 813.35,142.06 814.60,144.09 815.86,145.15 817.12,145.13 818.38,143.51 819.63,142.67 820.89,138.57 822.15,128.67 823.40,115.92 824.66,118.93 825.92,133.17 827.18,140.36 828.43,146.13 829.69,147.13 830.95,149.82 832.21,151.04 833.46,151.94 834.72,152.80 835.98,147.99 837.24,141.23 838.49,129.92 839.75,124.19 841.01,133.12 842.26,136.59 843.52,138.03 844.78,139.69 846.04,140.91 847.29,140.80 848.55,139.70 849.81,137.50 851.07,124.14 852.32,110.76 853.58,96.33 854.84,98.19 856.09,110.33 857.35,127.35 858.61,136.99 859.87,137.06 861.12,141.37 862.38,141.44 863.64,143.63 864.90,143.86 866.15,144.09 867.41,129.33 868.67,112.62 869.92,112.34 871.18,124.99 872.44,136.24 873.70,137.75 874.95,139.52 876.21,141.68 877.47,142.99 878.73,144.07 879.98,143.44 881.24,140.40 882.50,135.28 883.76,123.38 885.01,124.51 886.27,135.29 887.53,137.75 888.78,144.42 890.04,147.21 891.30,148.81 892.56,150.44 893.81,149.36 895.07,148.24 896.33,145.01 897.59,138.82 898.84,130.59 900.10,131.88 901.36,137.97 902.61,140.08 903.87,140.18 905.13,142.90 906.39,144.03 907.64,144.05 908.90,143.61 910.16,142.93 911.42,138.54 912.67,132.10 913.93,118.83 915.19,120.87 916.45,129.80 917.70,132.89 918.96,138.97 920.22,143.47 921.47,143.21 922.73,141.81 923.99,140.81 925.25,141.99 926.50,141.94 927.76,123.94 929.02,110.27 930.28,110.62 931.53,124.08 932.79,129.83 934.05,134.68 935.30,137.70 936.56,140.33 937.82,140.81 939.08,140.79 940.33,140.26 941.59,135.21 942.85,118.80 944.11,105.32 945.36,105.83 946.62,118.15 947.88,124.88 949.13,135.20 950.39,139.34 951.65,143.27 952.91,145.17 954.16,145.98 955.42,145.56 956.68,146.39 957.94,144.97 959.19,143.43 960.45,144.88 961.71,144.88 962.97,147.14 964.22,147.20 965.48,147.20 966.74,149.58 967.99,150.41 969.25,150.27 970.51,148.96 971.77,144.84 973.02,134.17 974.28,120.62 975.54,116.52 976.80,123.35 978.05,133.05 979.31,138.94 980.57,144.59 981.82,148.41 983.08,154.23 984.34,159.03 985.60,161.43 986.85,166.61 988.11,164.33 989.37,163.11 990.63,156.29 991.88,158.91 993.14,164.85 994.40,167.81 995.66,177.59 996.91,209.50 998.17,221.11 999.43,191.26 1000.68,177.63 1001.94,155.86 1003.20,146.31 1004.46,137.83 1005.71,136.41 1006.97,137.35 1008.23,130.70 1009.49,137.73 1010.74,146.15 1012.00,149.14"/>
<polygon points="108.00,545.00 108.00,500.45 109.26,512.83 110.51,476.52 111.77,440.23 113.03,427.85 114.29,440.23 115.54,478.18 116.80,516.12 118.06,516.12 119.32,479.82 120.57,492.20 121.83,455.90 123.09,416.30 124.34,380.00 125.60,380.00 126.86,380.00 128.12,380.00 129.37,417.95 130.63,455.90 131.89,493.85 133.15,531.80 134.40,544.17 135.66,531.80 136.92,531.80 138.18,544.17 139.43,544.17 140.69,544.17 141.95,544.17 143.20,544.17 144.46,531.80 145.72,544.17 146.98,544.17 148.23,531.80 149.49,544.17 150.75,531.80 152.01,495.50 153.26,455.90 154.52,416.30 155.78,380.00 157.03,380.00 158.29,392.38 159.55,430.32 160.81,468.27 162.06,506.23 163.32,544.17 164.58,544.17 165.84,544.17 167.09,507.88 168.35,471.57 169.61,431.98 170.87,392.38 172.12,380.00 173.38,417.95 174.64,455.90 175.89,493.85 177.15,531.80 178.41,544.17 179.67,540.05 180.92,527.67 182.18,491.38 183.44,455.07 184.70,418.77 185.95,382.48 187.21,382.48 188.47,390.73 189.72,428.68 190.98,466.62 192.24,504.57 193.50,542.52 194.75,542.52 196.01,538.40 197.27,502.10 198.53,465.80 199.78,429.50 201.04,393.20 202.30,380.82 203.55,393.20 204.81,436.10 206.07,479.00 207.33,516.95 208.58,529.33 209.84,541.70 211.10,533.45 212.36,497.15 213.61,460.85 214.87,424.55 216.13,388.25 217.39,426.20 218.64,464.15 219.90,502.10 221.16,545.00 222.41,545.00 223.67,545.00 224.93,545.00 226.19,532.62 227.44,496.32 228.70,460.02 229.96,420.43 231.22,384.12 232.47,380.00 233.73,380.00 234.99,417.95 236.24,455.90 237.50,493.85 238.76,531.80 240.02,540.05 241.27,503.75 242.53,467.45 243.79,431.15 245.05,394.85 246.30,382.48 247.56,386.60 248.82,424.55 250.08,467.45 251.33,505.40 252.59,543.35 253.85,543.35 255.10,543.35 256.36,539.23 257.62,502.93 258.88,466.62 260.13,430.32 261.39,394.02 262.65,381.65 263.91,381.65 265.16,424.55 266.42,467.45 267.68,505.40 268.93,517.77 270.19,530.15 271.45,493.85 272.71,457.55 273.96,421.25 275.22,384.95 276.48,380.82 277.74,380.82 278.99,380.82 280.25,418.77 281.51,461.68 282.76,504.57 284.02,542.52 285.28,542.52 286.54,542.52 287.79,530.15 289.05,493.85 290.31,457.55 291.57,417.95 292.82,381.65 294.08,424.55 295.34,467.45 296.60,510.35 297.85,544.17 299.11,544.17 300.37,544.17 301.62,531.80 302.88,495.50 304.14,459.20 305.40,422.90 306.65,386.60 307.91,390.73 309.17,433.62 310.43,476.52 311.68,519.42 312.94,545.00 314.20,545.00 315.45,545.00 316.71,545.00 317.97,545.00 319.23,505.40 320.48,543.35 321.74,543.35 323.00,543.35 324.26,539.23 325.51,499.62 326.77,542.52 328.03,526.85 329.29,544.17 330.54,504.57 331.80,542.52 333.06,502.93 334.31,463.32 335.57,423.73 336.83,384.12 338.09,380.00 339.34,380.00 340.60,380.00 341.86,417.95 343.12,455.90 344.37,493.85 345.63,502.10 346.89,545.00 348.14,545.00 349.40,508.70 350.66,469.10 351.92,432.80 353.17,396.50 354.43,439.40 355.69,451.77 356.95,494.68 358.20,458.38 359.46,418.77 360.72,382.48 361.97,420.43 363.23,384.12 364.49,380.00 365.75,380.00 367.00,380.00 368.26,380.00 369.52,417.95 370.78,455.90 372.03,493.85 373.29,531.80 374.55,544.17 375.81,544.17 377.06,544.17 378.32,544.17 379.58,531.80 380.83,495.50 382.09,459.20 383.35,422.90 384.61,386.60 385.86,398.98 387.12,436.93 388.38,474.88 389.64,512.83 390.89,525.20 392.15,525.20 393.41,488.90 394.66,452.60 395.92,416.30 397.18,380.00 398.44,380.00 399.69,388.25 400.95,426.20 402.21,464.15 403.47,502.10 404.72,545.00 405.98,545.00 407.24,540.88 408.50,528.50 409.75,492.20 411.01,455.90 412.27,416.30 413.52,380.00 414.78,380.00 416.04,380.00 417.30,417.95 418.55,430.32 419.81,468.27 421.07,506.23 422.33,493.85 423.58,457.55 424.84,421.25 426.10,384.95 427.35,380.82 428.61,418.77 429.87,456.73 431.13,499.62 432.38,537.58 433.64,541.70 434.90,541.70 436.16,541.70 437.41,537.58 438.67,525.20 439.93,488.90 441.18,452.60 442.44,416.30 443.70,380.00 444.96,380.00 446.21,417.95 447.47,455.90 448.73,493.85 449.99,531.80 451.24,544.17 452.50,544.17 453.76,531.80 455.02,495.50 456.27,455.90 457.53,416.30 458.79,380.00 460.04,417.95 461.30,455.90 462.56,493.85 463.82,531.80 465.07,544.17 466.33,544.17 467.59,531.80 468.85,495.50 470.10,459.20 471.36,422.90 472.62,386.60 473.87,382.48 475.13,420.43 476.39,463.32 477.65,506.23 478.90,544.17 480.16,544.17 481.42,531.80 482.68,495.50 483.93,459.20 485.19,422.90 486.45,386.60 487.71,382.48 488.96,382.48 490.22,416.30 491.48,459.20 492.73,502.10 493.99,545.00 495.25,545.00 496.51,545.00 497.76,545.00 499.02,516.95 500.28,480.65 501.54,444.35 502.79,408.05 504.05,380.00 505.31,380.00 506.56,422.90 507.82,465.80 509.08,503.75 510.34,541.70 511.59,541.70 512.85,505.40 514.11,465.80 515.37,429.50 516.62,393.20 517.88,380.82 519.14,380.82 520.39,423.73 521.65,466.62 522.91,509.52 524.17,543.35 525.42,543.35 526.68,543.35 527.94,543.35 529.20,543.35 530.45,535.10 531.71,498.80 532.97,462.50 534.23,426.20 535.48,389.90 536.74,427.85 538.00,465.80 539.25,503.75 540.51,541.70 541.77,537.58 543.03,525.20 544.28,488.90 545.54,452.60 546.80,416.30 548.06,380.00 549.31,380.00 550.57,392.38 551.83,430.32 553.08,468.27 554.34,506.23 555.60,544.17 556.86,544.17 558.11,544.17 559.37,544.17 560.63,531.80 561.89,495.50 563.14,459.20 564.40,422.90 565.66,386.60 566.92,386.60 568.17,424.55 569.43,462.50 570.69,474.88 571.94,512.83 573.20,525.20 574.46,488.90 575.72,452.60 576.97,416.30 578.23,380.00 579.49,380.00 580.75,380.00 582.00,417.95 583.26,455.90 584.52,498.80 585.77,541.70 587.03,541.70 588.29,537.58 589.55,501.27 590.80,464.98 592.06,428.68 593.32,392.38 594.58,380.00 595.83,417.95 597.09,460.85 598.35,503.75 599.61,541.70 600.86,505.40 602.12,469.10 603.38,432.80 604.63,420.43 605.89,384.12 607.15,380.00 608.41,380.00 609.66,380.00 610.92,417.95 612.18,460.85 613.44,503.75 614.69,541.70 615.95,541.70 617.21,541.70 618.46,537.58 619.72,525.20 620.98,488.90 622.24,452.60 623.49,416.30 624.75,380.00 626.01,417.95 627.27,460.85 628.52,503.75 629.78,541.70 631.04,537.58 632.29,525.20 633.55,488.90 634.81,452.60 636.07,416.30 637.32,380.00 638.58,380.00 639.84,380.00 641.10,417.95 642.35,460.85 643.61,503.75 644.87,541.70 646.13,541.70 647.38,541.70 648.64,537.58 649.90,501.27 651.15,464.98 652.41,428.68 653.67,416.30 654.93,380.00 656.18,392.38 657.44,435.27 658.70,478.18 659.96,521.08 661.21,533.45 662.47,537.58 663.73,525.20 664.98,488.90 666.24,452.60 667.50,416.30 668.76,380.00 670.01,392.38 671.27,430.32 672.53,468.27 673.79,506.23 675.04,544.17 676.30,544.17 677.56,544.17 678.82,540.05 680.07,527.67 681.33,491.38 682.59,455.07 683.84,418.77 685.10,382.48 686.36,382.48 687.62,394.85 688.87,432.80 690.13,470.75 691.39,474.88 692.65,512.83 693.90,525.20 695.16,488.90 696.42,452.60 697.67,416.30 698.93,380.00 700.19,380.00 701.45,380.00 702.70,417.95 703.96,460.85 705.22,503.75 706.48,541.70 707.73,541.70 708.99,537.58 710.25,501.27 711.50,464.98 712.76,428.68 714.02,392.38 715.28,380.00 716.53,380.00 717.79,417.95 719.05,455.90 720.31,493.85 721.56,531.80 722.82,544.17 724.08,540.05 725.34,503.75 726.59,467.45 727.85,431.15 729.11,394.85 730.36,382.48 731.62,386.60 732.88,424.55 734.14,462.50 735.39,505.40 736.65,543.35 737.91,543.35 739.17,543.35 740.42,543.35 741.68,530.98 742.94,518.60 744.19,482.30 745.45,446.00 746.71,433.62 747.97,471.57 749.22,509.52 750.48,521.90 751.74,526.02 753.00,513.65 754.25,501.27 755.51,464.98 756.77,428.68 758.03,392.38 759.28,380.00 760.54,392.38 761.80,430.32 763.05,468.27 764.31,506.23 765.57,506.23 766.83,544.17 768.08,544.17 769.34,544.17 770.60,544.17 771.86,544.17 773.11,544.17 774.37,531.80 775.63,519.42 776.88,479.82 778.14,467.45 779.40,505.40 780.66,543.35 781.91,543.35 783.17,543.35 784.43,539.23 785.69,499.62 786.94,460.02 788.20,420.43 789.46,380.82 790.71,380.82 791.97,380.82 793.23,423.73 794.49,466.62 795.74,504.57 797.00,542.52 798.26,542.52 799.52,538.40 800.77,502.10 802.03,465.80 803.29,429.50 804.55,393.20 805.80,380.82 807.06,418.77 808.32,461.68 809.57,504.57 810.83,542.52 812.09,530.15 813.35,538.40 814.60,502.10 815.86,465.80 817.12,429.50 818.38,393.20 819.63,380.82 820.89,380.82 822.15,418.77 823.40,461.68 824.66,504.57 825.92,542.52 827.18,542.52 828.43,542.52 829.69,538.40 830.95,502.10 832.21,465.80 833.46,429.50 834.72,393.20 835.98,380.82 837.24,380.82 838.49,423.73 839.75,466.62 841.01,504.57 842.26,542.52 843.52,530.15 844.78,493.85 846.04,457.55 847.29,421.25 848.55,384.95 849.81,380.82 851.07,380.82 852.32,418.77 853.58,461.68 854.84,504.57 856.09,542.52 857.35,542.52 858.61,542.52 859.87,538.40 861.12,526.02 862.38,489.73 863.64,453.43 864.90,417.12 866.15,380.82 867.41,418.77 868.67,461.68 869.92,504.57 871.18,542.52 872.44,542.52 873.70,542.52 874.95,538.40 876.21,502.10 877.47,465.80 878.73,429.50 879.98,393.20 881.24,380.82 882.50,418.77 883.76,461.68 885.01,504.57 886.27,542.52 887.53,542.52 888.78,542.52 890.04,530.15 891.30,493.85 892.56,457.55 893.81,421.25 895.07,384.95 896.33,380.82 897.59,418.77 898.84,461.68 900.10,504.57 901.36,542.52 902.61,542.52 903.87,538.40 905.13,526.02 906.39,489.73 907.64,453.43 908.90,417.12 910.16,380.82 911.42,380.82 912.67,418.77 913.93,461.68 915.19,504.57 916.45,542.52 917.70,542.52 918.96,542.52 920.22,506.23 921.47,469.93 922.73,457.55 923.99,453.43 925.25,417.12 926.50,380.82 927.76,418.77 929.02,461.68 930.28,504.57 931.53,542.52 932.79,542.52 934.05,542.52 935.30,530.15 936.56,493.85 937.82,457.55 939.08,421.25 940.33,384.95 941.59,380.82 942.85,418.77 944.11,461.68 945.36,504.57 946.62,542.52 947.88,542.52 949.13,542.52 950.39,542.52 951.65,542.52 952.91,530.15 954.16,517.77 955.42,505.40 956.68,469.10 957.94,481.48 959.19,519.42 960.45,531.80 961.71,544.17 962.97,544.17 964.22,540.05 965.48,527.67 966.74,491.38 967.99,455.07 969.25,418.77 970.51,382.48 971.77,382.48 973.02,390.73 974.28,433.62 975.54,476.52 976.80,519.42 978.05,545.00 979.31,545.00 980.57,545.00 981.82,545.00 983.08,545.00 984.34,545.00 985.60,545.00 986.85,505.40 988.11,465.80 989.37,457.55 990.63,500.45 991.88,543.35 993.14,543.35 994.40,543.35 995.66,535.10 996.91,495.50 998.17,455.90 999.43,416.30 1000.68,380.00 1001.94,380.00 1003.20,380.00 1004.46,380.00 1005.71,422.90 1006.97,460.85 1008.23,503.75 1009.49,541.70 1010.74,502.10 1012.00,462.50 1012.00,545.00" fill="#3498db" opacity="0.18"/>
<polyline fill="none" stroke="#2980b9" stroke-width="2.2" points="108.00,500.45 109.26,512.83 110.51,476.52 111.77,440.23 113.03,427.85 114.29,440.23 115.54,478.18 116.80,516.12 118.06,516.12 119.32,479.82 120.57,492.20 121.83,455.90 123.09,416.30 124.34,380.00 125.60,380.00 126.86,380.00 128.12,380.00 129.37,417.95 130.63,455.90 131.89,493.85 133.15,531.80 134.40,544.17 135.66,531.80 136.92,531.80 138.18,544.17 139.43,544.17 140.69,544.17 141.95,544.17 143.20,544.17 144.46,531.80 145.72,544.17 146.98,544.17 148.23,531.80 149.49,544.17 150.75,531.80 152.01,495.50 153.26,455.90 154.52,416.30 155.78,380.00 157.03,380.00 158.29,392.38 159.55,430.32 160.81,468.27 162.06,506.23 163.32,544.17 164.58,544.17 165.84,544.17 167.09,507.88 168.35,471.57 169.61,431.98 170.87,392.38 172.12,380.00 173.38,417.95 174.64,455.90 175.89,493.85 177.15,531.80 178.41,544.17 179.67,540.05 180.92,527.67 182.18,491.38 183.44,455.07 184.70,418.77 185.95,382.48 187.21,382.48 188.47,390.73 189.72,428.68 190.98,466.62 192.24,504.57 193.50,542.52 194.75,542.52 196.01,538.40 197.27,502.10 198.53,465.80 199.78,429.50 201.04,393.20 202.30,380.82 203.55,393.20 204.81,436.10 206.07,479.00 207.33,516.95 208.58,529.33 209.84,541.70 211.10,533.45 212.36,497.15 213.61,460.85 214.87,424.55 216.13,388.25 217.39,426.20 218.64,464.15 219.90,502.10 221.16,545.00 222.41,545.00 223.67,545.00 224.93,545.00 226.19,532.62 227.44,496.32 228.70,460.02 229.96,420.43 231.22,384.12 232.47,380.00 233.73,380.00 234.99,417.95 236.24,455.90 237.50,493.85 238.76,531.80 240.02,540.05 241.27,503.75 242.53,467.45 243.79,431.15 245.05,394.85 246.30,382.48 247.56,386.60 248.82,424.55 250.08,467.45 251.33,505.40 252.59,543.35 253.85,543.35 255.10,543.35 256.36,539.23 257.62,502.93 258.88,466.62 260.13,430.32 261.39,394.02 262.65,381.65 263.91,381.65 265.16,424.55 266.42,467.45 267.68,505.40 268.93,517.77 270.19,530.15 271.45,493.85 272.71,457.55 273.96,421.25 275.22,384.95 276.48,380.82 277.74,380.82 278.99,380.82 280.25,418.77 281.51,461.68 282.76,504.57 284.02,542.52 285.28,542.52 286.54,542.52 287.79,530.15 289.05,493.85 290.31,457.55 291.57,417.95 292.82,381.65 294.08,424.55 295.34,467.45 296.60,510.35 297.85,544.17 299.11,544.17 300.37,544.17 301.62,531.80 302.88,495.50 304.14,459.20 305.40,422.90 306.65,386.60 307.91,390.73 309.17,433.62 310.43,476.52 311.68,519.42 312.94,545.00 314.20,545.00 315.45,545.00 316.71,545.00 317.97,545.00 319.23,505.40 320.48,543.35 321.74,543.35 323.00,543.35 324.26,539.23 325.51,499.62 326.77,542.52 328.03,526.85 329.29,544.17 330.54,504.57 331.80,542.52 333.06,502.93 334.31,463.32 335.57,423.73 336.83,384.12 338.09,380.00 339.34,380.00 340.60,380.00 341.86,417.95 343.12,455.90 344.37,493.85 345.63,502.10 346.89,545.00 348.14,545.00 349.40,508.70 350.66,469.10 351.92,432.80 353.17,396.50 354.43,439.40 355.69,451.77 356.95,494.68 358.20,458.38 359.46,418.77 360.72,382.48 361.97,420.43 363.23,384.12 364.49,380.00 365.75,380.00 367.00,380.00 368.26,380.00 369.52,417.95 370.78,455.90 372.03,493.85 373.29,531.80 374.55,544.17 375.81,544.17 377.06,544.17 378.32,544.17 379.58,531.80 380.83,495.50 382.09,459.20 383.35,422.90 384.61,386.60 385.86,398.98 387.12,436.93 388.38,474.88 389.64,512.83 390.89,525.20 392.15,525.20 393.41,488.90 394.66,452.60 395.92,416.30 397.18,380.00 398.44,380.00 399.69,388.25 400.95,426.20 402.21,464.15 403.47,502.10 404.72,545.00 405.98,545.00 407.24,540.88 408.50,528.50 409.75,492.20 411.01,455.90 412.27,416.30 413.52,380.00 414.78,380.00 416.04,380.00 417.30,417.95 418.55,430.32 419.81,468.27 421.07,506.23 422.33,493.85 423.58,457.55 424.84,421.25 426.10,384.95 427.35,380.82 428.61,418.77 429.87,456.73 431.13,499.62 432.38,537.58 433.64,541.70 434.90,541.70 436.16,541.70 437.41,537.58 438.67,525.20 439.93,488.90 441.18,452.60 442.44,416.30 443.70,380.00 444.96,380.00 446.21,417.95 447.47,455.90 448.73,493.85 449.99,531.80 451.24,544.17 452.50,544.17 453.76,531.80 455.02,495.50 456.27,455.90 457.53,416.30 458.79,380.00 460.04,417.95 461.30,455.90 462.56,493.85 463.82,531.80 465.07,544.17 466.33,544.17 467.59,531.80 468.85,495.50 470.10,459.20 471.36,422.90 472.62,386.60 473.87,382.48 475.13,420.43 476.39,463.32 477.65,506.23 478.90,544.17 480.16,544.17 481.42,531.80 482.68,495.50 483.93,459.20 485.19,422.90 486.45,386.60 487.71,382.48 488.96,382.48 490.22,416.30 491.48,459.20 492.73,502.10 493.99,545.00 495.25,545.00 496.51,545.00 497.76,545.00 499.02,516.95 500.28,480.65 501.54,444.35 502.79,408.05 504.05,380.00 505.31,380.00 506.56,422.90 507.82,465.80 509.08,503.75 510.34,541.70 511.59,541.70 512.85,505.40 514.11,465.80 515.37,429.50 516.62,393.20 517.88,380.82 519.14,380.82 520.39,423.73 521.65,466.62 522.91,509.52 524.17,543.35 525.42,543.35 526.68,543.35 527.94,543.35 529.20,543.35 530.45,535.10 531.71,498.80 532.97,462.50 534.23,426.20 535.48,389.90 536.74,427.85 538.00,465.80 539.25,503.75 540.51,541.70 541.77,537.58 543.03,525.20 544.28,488.90 545.54,452.60 546.80,416.30 548.06,380.00 549.31,380.00 550.57,392.38 551.83,430.32 553.08,468.27 554.34,506.23 555.60,544.17 556.86,544.17 558.11,544.17 559.37,544.17 560.63,531.80 561.89,495.50 563.14,459.20 564.40,422.90 565.66,386.60 566.92,386.60 568.17,424.55 569.43,462.50 570.69,474.88 571.94,512.83 573.20,525.20 574.46,488.90 575.72,452.60 576.97,416.30 578.23,380.00 579.49,380.00 580.75,380.00 582.00,417.95 583.26,455.90 584.52,498.80 585.77,541.70 587.03,541.70 588.29,537.58 589.55,501.27 590.80,464.98 592.06,428.68 593.32,392.38 594.58,380.00 595.83,417.95 597.09,460.85 598.35,503.75 599.61,541.70 600.86,505.40 602.12,469.10 603.38,432.80 604.63,420.43 605.89,384.12 607.15,380.00 608.41,380.00 609.66,380.00 610.92,417.95 612.18,460.85 613.44,503.75 614.69,541.70 615.95,541.70 617.21,541.70 618.46,537.58 619.72,525.20 620.98,488.90 622.24,452.60 623.49,416.30 624.75,380.00 626.01,417.95 627.27,460.85 628.52,503.75 629.78,541.70 631.04,537.58 632.29,525.20 633.55,488.90 634.81,452.60 636.07,416.30 637.32,380.00 638.58,380.00 639.84,380.00 641.10,417.95 642.35,460.85 643.61,503.75 644.87,541.70 646.13,541.70 647.38,541.70 648.64,537.58 649.90,501.27 651.15,464.98 652.41,428.68 653.67,416.30 654.93,380.00 656.18,392.38 657.44,435.27 658.70,478.18 659.96,521.08 661.21,533.45 662.47,537.58 663.73,525.20 664.98,488.90 666.24,452.60 667.50,416.30 668.76,380.00 670.01,392.38 671.27,430.32 672.53,468.27 673.79,506.23 675.04,544.17 676.30,544.17 677.56,544.17 678.82,540.05 680.07,527.67 681.33,491.38 682.59,455.07 683.84,418.77 685.10,382.48 686.36,382.48 687.62,394.85 688.87,432.80 690.13,470.75 691.39,474.88 692.65,512.83 693.90,525.20 695.16,488.90 696.42,452.60 697.67,416.30 698.93,380.00 700.19,380.00 701.45,380.00 702.70,417.95 703.96,460.85 705.22,503.75 706.48,541.70 707.73,541.70 708.99,537.58 710.25,501.27 711.50,464.98 712.76,428.68 714.02,392.38 715.28,380.00 716.53,380.00 717.79,417.95 719.05,455.90 720.31,493.85 721.56,531.80 722.82,544.17 724.08,540.05 725.34,503.75 726.59,467.45 727.85,431.15 729.11,394.85 730.36,382.48 731.62,386.60 732.88,424.55 734.14,462.50 735.39,505.40 736.65,543.35 737.91,543.35 739.17,543.35 740.42,543.35 741.68,530.98 742.94,518.60 744.19,482.30 745.45,446.00 746.71,433.62 747.97,471.57 749.22,509.52 750.48,521.90 751.74,526.02 753.00,513.65 754.25,501.27 755.51,464.98 756.77,428.68 758.03,392.38 759.28,380.00 760.54,392.38 761.80,430.32 763.05,468.27 764.31,506.23 765.57,506.23 766.83,544.17 768.08,544.17 769.34,544.17 770.60,544.17 771.86,544.17 773.11,544.17 774.37,531.80 775.63,519.42 776.88,479.82 778.14,467.45 779.40,505.40 780.66,543.35 781.91,543.35 783.17,543.35 784.43,539.23 785.69,499.62 786.94,460.02 788.20,420.43 789.46,380.82 790.71,380.82 791.97,380.82 793.23,423.73 794.49,466.62 795.74,504.57 797.00,542.52 798.26,542.52 799.52,538.40 800.77,502.10 802.03,465.80 803.29,429.50 804.55,393.20 805.80,380.82 807.06,418.77 808.32,461.68 809.57,504.57 810.83,542.52 812.09,530.15 813.35,538.40 814.60,502.10 815.86,465.80 817.12,429.50 818.38,393.20 819.63,380.82 820.89,380.82 822.15,418.77 823.40,461.68 824.66,504.57 825.92,542.52 827.18,542.52 828.43,542.52 829.69,538.40 830.95,502.10 832.21,465.80 833.46,429.50 834.72,393.20 835.98,380.82 837.24,380.82 838.49,423.73 839.75,466.62 841.01,504.57 842.26,542.52 843.52,530.15 844.78,493.85 846.04,457.55 847.29,421.25 848.55,384.95 849.81,380.82 851.07,380.82 852.32,418.77 853.58,461.68 854.84,504.57 856.09,542.52 857.35,542.52 858.61,542.52 859.87,538.40 861.12,526.02 862.38,489.73 863.64,453.43 864.90,417.12 866.15,380.82 867.41,418.77 868.67,461.68 869.92,504.57 871.18,542.52 872.44,542.52 873.70,542.52 874.95,538.40 876.21,502.10 877.47,465.80 878.73,429.50 879.98,393.20 881.24,380.82 882.50,418.77 883.76,461.68 885.01,504.57 886.27,542.52 887.53,542.52 888.78,542.52 890.04,530.15 891.30,493.85 892.56,457.55 893.81,421.25 895.07,384.95 896.33,380.82 897.59,418.77 898.84,461.68 900.10,504.57 901.36,542.52 902.61,542.52 903.87,538.40 905.13,526.02 906.39,489.73 907.64,453.43 908.90,417.12 910.16,380.82 911.42,380.82 912.67,418.77 913.93,461.68 915.19,504.57 916.45,542.52 917.70,542.52 918.96,542.52 920.22,506.23 921.47,469.93 922.73,457.55 923.99,453.43 925.25,417.12 926.50,380.82 927.76,418.77 929.02,461.68 930.28,504.57 931.53,542.52 932.79,542.52 934.05,542.52 935.30,530.15 936.56,493.85 937.82,457.55 939.08,421.25 940.33,384.95 941.59,380.82 942.85,418.77 944.11,461.68 945.36,504.57 946.62,542.52 947.88,542.52 949.13,542.52 950.39,542.52 951.65,542.52 952.91,530.15 954.16,517.77 955.42,505.40 956.68,469.10 957.94,481.48 959.19,519.42 960.45,531.80 961.71,544.17 962.97,544.17 964.22,540.05 965.48,527.67 966.74,491.38 967.99,455.07 969.25,418.77 970.51,382.48 971.77,382.48 973.02,390.73 974.28,433.62 975.54,476.52 976.80,519.42 978.05,545.00 979.31,545.00 980.57,545.00 981.82,545.00 983.08,545.00 984.34,545.00 985.60,545.00 986.85,505.40 988.11,465.80 989.37,457.55 990.63,500.45 991.88,543.35 993.14,543.35 994.40,543.35 995.66,535.10 996.91,495.50 998.17,455.90 999.43,416.30 1000.68,380.00 1001.94,380.00 1003.20,380.00 1004.46,380.00 1005.71,422.90 1006.97,460.85 1008.23,503.75 1009.49,541.70 1010.74,502.10 1012.00,462.50"/>
<text x="1082" y="84" text-anchor="end" font-family="Arial, sans-serif" font-size="12" fill="#4b5563">89.8</text>
<text x="1082" y="294" text-anchor="end" font-family="Arial, sans-serif" font-size="12" fill="#4b5563">-103.3</text>
<text x="28" y="185.00" transform="rotate(-90 28 185.00)" font-family="Arial, sans-serif" font-size="13" fill="#374151">Battery Power (MW)</text>
<text x="1076" y="185.00" transform="rotate(90 1076 185.00)" font-family="Arial, sans-serif" font-size="13" fill="#374151">Price (EUR/MWh)</text>
<text x="28" y="462.50" transform="rotate(-90 28 462.50)" font-family="Arial, sans-serif" font-size="13" fill="#374151">SoC (MWh)</text>
<text x="560.00" y="602" text-anchor="middle" font-family="Arial, sans-serif" font-size="13" fill="#374151">Day</text>
</svg>